<?xml version="1.0" encoding="UTF-8"?><svg id="b" xmlns="http://www.w3.org/2000/svg" viewBox="0 0 256 256"><defs><style>.d{fill:none;}.e{fill:#f46269;}.f{fill:#f26527;}.g{fill:#e6f4ff;}.h{fill:#ea5463;}.i{fill:#e5521f;}.j{fill:#ef6565;}.k{fill:#fff;}.l{fill:#ffc8b5;}.m{fill:#ffb9a4;}.n{fill:#fc7734;}.o{fill:#6b6b6b;}.p{fill:#9fd3f4;}.q{fill:#9e9e9e;}.r{fill:#ddd;}.s{fill:#c7e4f9;}.t{fill:#424242;}.u{fill:#353535;}.v{fill:#3a3c3d;}.w{fill:#606060;}.x{fill:#515151;}</style></defs><g id="c"><g><rect class="d" width="256" height="256"/><g><g><g><path class="o" d="m129.41,110.946h0c0-1.823-1.108-2.661-2.476-1.872l-12.78,7.191c-1.367.789-2.476,2.907-2.476,4.73h0c0,1.823,1.109,2.661,2.476,1.872l12.78-7.191c1.368-.789,2.476-2.908,2.476-4.731Z"/><polygon class="o" points="242.871 173.438 128.465 108.916 112.403 122.912 227.044 187.557 242.871 173.438"/><path class="x" d="m243.873,175.498h0c0-1.823-1.109-2.661-2.476-1.872l-12.781,7.191c-1.367.79-2.476,2.908-2.476,4.731h0c0,1.823,1.109,2.661,2.476,1.872l12.781-7.191c1.368-.789,2.476-2.907,2.476-4.73Z"/></g><g><polygon class="p" points="139.127 141.924 180.15 164.404 182.27 159.063 141.52 136.704 139.127 141.924"/><path class="p" d="m138.555,140.453c0,1.382.841,2.017,1.877,1.419,1.036-.599,1.877-2.204,1.877-3.586s-.84-2.017-1.877-1.419c-1.037.598-1.877,2.204-1.877,3.586Z"/><path class="p" d="m179.27,162.792c0,1.382.84,2.018,1.877,1.419,1.036-.598,1.877-2.204,1.877-3.586s-.84-2.018-1.877-1.419c-1.037.598-1.877,2.204-1.877,3.586Z"/></g><g><g><path class="t" d="m33.652,215.212c0,2.496,3.16,4.519,7.057,4.519s7.058-2.023,7.058-4.519-3.16-4.519-7.058-4.519-7.057,2.023-7.057,4.519Z"/><rect class="t" x="33.652" y="213.844" width="14.115" height="1.551" transform="translate(81.419 429.24) rotate(180)"/><path class="w" d="m33.652,213.844c0,2.496,3.16,4.519,7.057,4.519s7.058-2.023,7.058-4.519-3.16-4.519-7.058-4.519-7.057,2.023-7.057,4.519Z"/></g><path class="g" d="m44.851,168.619v44.799h-8.283v-44.799h8.283Z"/><path class="g" d="m36.568,213.418c0,1.464,1.854,2.652,4.142,2.652s4.142-1.187,4.142-2.652-1.854-2.652-4.142-2.652-4.142,1.187-4.142,2.652Z"/><path class="o" d="m36.568,168.619c0,1.464,1.854,2.651,4.142,2.651s4.142-1.187,4.142-2.651-1.854-2.652-4.142-2.652-4.142,1.188-4.142,2.652Z"/></g><g><g><path class="t" d="m65.339,233.129c0,2.496,3.16,4.519,7.058,4.519s7.058-2.023,7.058-4.519-3.16-4.519-7.058-4.519-7.058,2.023-7.058,4.519Z"/><rect class="t" x="65.339" y="231.761" width="14.115" height="1.551" transform="translate(144.792 465.073) rotate(180)"/><path class="w" d="m65.339,231.761c0,2.496,3.16,4.519,7.058,4.519s7.058-2.023,7.058-4.519-3.16-4.519-7.058-4.519-7.058,2.023-7.058,4.519Z"/></g><path class="g" d="m76.538,186.535v44.799h-8.283v-44.799h8.283Z"/><path class="g" d="m68.255,231.334c0,1.464,1.854,2.652,4.141,2.652s4.141-1.187,4.141-2.652-1.854-2.652-4.141-2.652-4.141,1.187-4.141,2.652Z"/><path class="o" d="m68.255,186.535c0,1.465,1.854,2.652,4.141,2.652s4.141-1.187,4.141-2.652-1.854-2.651-4.141-2.651-4.141,1.187-4.141,2.651Z"/></g><g><g><path class="t" d="m174.859,171.232c0,2.496,3.159,4.519,7.057,4.519s7.057-2.023,7.057-4.519-3.159-4.519-7.057-4.519-7.057,2.023-7.057,4.519Z"/><rect class="t" x="174.859" y="169.864" width="14.115" height="1.551" transform="translate(363.833 341.279) rotate(180)"/><ellipse class="w" cx="181.917" cy="169.864" rx="7.057" ry="4.519"/></g><path class="g" d="m186.058,137.063v32.374h-8.283v-32.374h8.283Z"/><path class="g" d="m177.775,169.437c0,1.464,1.854,2.652,4.141,2.652s4.141-1.187,4.141-2.652-1.854-2.652-4.141-2.652-4.141,1.187-4.141,2.652Z"/></g><g><g><polygon class="g" points="225.839 175.357 230.452 172.694 230.452 55.632 225.839 58.296 225.839 175.357"/><polygon class="s" points="225.839 175.357 221.225 172.694 221.225 55.632 225.839 58.296 225.839 175.357"/><polygon class="k" points="225.838 52.984 230.452 55.632 225.839 58.296 221.225 55.632 225.838 52.984"/></g><g><polygon class="x" points="225.366 65.971 222.155 64.115 217.842 66.479 218.339 69.748 225.366 65.971"/><g><g><polygon class="t" points="216.733 72.261 218.339 71.372 218.339 65.726 216.733 66.614 216.733 72.261"/><polygon class="t" points="216.733 72.44 225.366 67.827 225.366 65.971 216.733 70.584 216.733 72.44"/><polygon class="w" points="216.733 72.44 213.522 70.407 213.522 64.76 216.733 66.614 216.733 72.44"/></g><polygon class="x" points="218.339 65.726 216.733 66.614 213.522 64.76 215.128 63.872 218.339 65.726"/></g></g><g><polygon class="x" points="225.366 100.547 222.155 98.692 217.842 101.056 218.339 104.325 225.366 100.547"/><g><g><polygon class="t" points="216.733 106.838 218.339 105.95 218.339 100.303 216.733 101.192 216.733 106.838"/><polygon class="t" points="216.733 107.017 225.366 102.403 225.366 100.547 216.733 105.161 216.733 107.017"/><polygon class="w" points="216.733 107.017 213.522 104.984 213.522 99.337 216.733 101.192 216.733 107.017"/></g><polygon class="x" points="218.339 100.303 216.733 101.192 213.522 99.337 215.128 98.449 218.339 100.303"/></g></g></g><g><g><polygon class="g" points="147.361 129.787 151.973 127.123 151.973 10.062 147.361 12.725 147.361 129.787"/><polygon class="s" points="147.361 129.787 142.747 127.123 142.747 10.062 147.361 12.725 147.361 129.787"/><polygon class="k" points="147.36 7.414 151.973 10.062 147.361 12.725 142.747 10.062 147.36 7.414"/></g><g><polygon class="x" points="146.888 20.4 143.677 18.544 139.364 20.908 139.861 24.177 146.888 20.4"/><g><g><polygon class="t" points="138.255 26.69 139.861 25.802 139.861 20.155 138.255 21.044 138.255 26.69"/><polygon class="t" points="138.255 26.869 146.888 22.256 146.888 20.4 138.255 25.014 138.255 26.869"/><polygon class="w" points="138.255 26.869 135.044 24.836 135.044 19.19 138.255 21.044 138.255 26.869"/></g><polygon class="x" points="139.861 20.155 138.255 21.044 135.044 19.19 136.649 18.302 139.861 20.155"/></g></g><g><polygon class="x" points="146.888 54.977 143.677 53.121 139.364 55.485 139.861 58.755 146.888 54.977"/><g><g><polygon class="t" points="138.255 61.268 139.861 60.379 139.861 54.733 138.255 55.621 138.255 61.268"/><polygon class="t" points="138.255 61.447 146.888 56.833 146.888 54.977 138.255 59.591 138.255 61.447"/><polygon class="w" points="138.255 61.447 135.044 59.413 135.044 53.767 138.255 55.621 138.255 61.447"/></g><polygon class="x" points="139.861 54.733 138.255 55.621 135.044 53.767 136.649 52.879 139.861 54.733"/></g></g></g><g><polygon class="p" points="151.546 160.182 45.619 217.328 43.5 211.987 149.153 154.962 151.546 160.182"/><path class="p" d="m152.119,158.711c0,1.382-.841,2.018-1.877,1.419-1.037-.599-1.877-2.204-1.877-3.586s.84-2.017,1.877-1.419c1.036.598,1.877,2.204,1.877,3.586Z"/><path class="p" d="m46.5,215.716c0,1.382-.84,2.017-1.877,1.419-1.036-.598-1.877-2.204-1.877-3.586s.84-2.017,1.877-1.419c1.037.599,1.877,2.204,1.877,3.586Z"/></g><g><g><polygon class="x" points="193.587 128.229 72.114 197.778 36.72 177.344 158.194 107.795 193.587 128.229"/><polygon class="t" points="193.587 128.229 193.587 136.61 72.114 206.159 72.114 197.778 193.587 128.229"/><polygon class="w" points="36.72 177.344 36.72 185.725 72.114 206.159 72.114 197.778 36.72 177.344"/></g><path class="i" d="m55.309,149.984c-4.084,1.791,1.411,10.601,1.999,10.601s9.037-6.962,9.037-6.962c0,0-6.327-5.704-11.036-3.639Z"/><path class="m" d="m56.321,151.366s-12.681,6.882-17.668,10.185c-4.987,3.302-6.918,4.218-7.605,9.405-.686,5.187-.741,44.011-.741,44.011l9.829,1.843s-.784-3.854-.323-7.529c.461-3.675,6.784-16.517,7.065-24.001.28-7.485-.676-9.608-.676-9.608,0,0,16.055-3.938,22.173-8.248,6.118-4.31-2.865-21.172-12.054-16.057Z"/><path class="m" d="m134.46,118.397s-.604-6.039-1.208-12.561c-.604-6.522-2.416-8.092-2.053-8.213.362-.12,8.539-9.52,13.336-14.053,4.508-4.26,6.377-8.539,8.122-10.623.914-1.092,1.087-2.197,1.087-2.197l-7.206-1.147s-5.716,4.514-13.687,10.07c-7.971,5.556-10.589,12.999-12.401,14.931-1.812,1.932-1.261,2.657-1.415,3.986-.155,1.328-.377,15.128,1.295,21.135,1.671,6.007,14.131-1.328,14.131-1.328Z"/><path class="l" d="m109.821,123.47c-2.389,1.669-9.546,6.957-12.321,8.759-4.817,3.128-9.361,4.961-12.209,8.176-.009,4.714,17.974,17.944,24.215,23.031,2.745-1.328,14.896-10.016,19.755-13.326,3.105-1.017,5.173-1.338,6.399-2.002,4.481-2.428,9.761-4.312,13.866-8.735,3.805-4.098,3.54-7.182,2.808-9.08-3.093-8.018-11.271-9.689-14.735-13.225-5.797-5.918-11.457-5.83-15.218-3.744-4.199,2.328-9.903,4.926-12.561,10.145Z"/><path class="l" d="m166.885,119.846c4.714-11.489-4.996-17.374-12.467-15.942-5.694,1.092-13.082,4.557-14.453,11.141-.271,1.304.317,2.863,1.396,4.292.011.012.013.026.026.039.004.004.008.004.012.008,1.379,1.804,4.509,6.265,6.708,6.865,5.154,3.774,14.896,3.058,18.778-6.402Z"/><path class="m" d="m112.355,133.189s-4.459,1.246-6.633,2.913c-2.174,1.667-5.651,4.214-5.651,4.214,0,0-1.986-.052-2.503.603-.517.656.434,2.02,3.204.237,2.77-1.782,11.584-7.968,11.584-7.968Z"/><path class="u" d="m155.883,103.9s4.952-2.501,9.134-.209c3.216,1.762,5.917,8.035,5.918,10.197.002,6.27-4.404,11.395-6.522,12.54-6.801,3.677-13.768.44-13.768.44,0,0,4.204-4.273,6.49-5.021,2.606-7.01,4.049-9.698,5.513-13.129-.397-4.995-6.764-4.819-6.764-4.819Z"/><path class="l" d="m157.428,119.725s3.999,2.781.227,4.651c-3.423,1.697-4.955-1.374-4.955-1.374l4.728-3.277Z"/><path class="m" d="m140.818,112.582s3.424,4.245,5.72,5.936c2.294,1.691,2.845,7.56,2.299,7.041-1.087-1.031-8.096-3.297-11.236-5.351-3.14-2.053,2.3-3.554,2.3-3.554l.918-4.073Z"/><path class="m" d="m131.199,119.364s-4.65,2.533-8.334,5.524c-3.684,2.991-4.408,9.996-4.408,9.996,0,0-1.993-1.993,1.026-7.76,3.02-5.767,11.715-8.036,11.715-8.036v.276Z"/><path class="m" d="m143.076,130.785c6.222-4.797,11.759-2.555,11.759-2.555,5.955-4.357,15.212-4.575,15.212-4.575,0,0,2.456-12.963,6.345-20.742,3.108-6.216,2.597-10.242,3.748-13.705,2.259,1.177,5.784,3.158,8.024,4.282-.242,2.823-.633,7.041-1.271,13.313-1.556,15.297-9.075,30.594-9.463,31.386-.389.791-2.074.505-5.088,1.283-3.014.778-23.173,6.352-30.297,6.223-7.125-.13-5.191-10.112,1.032-14.908Z"/><path class="f" d="m55.309,149.984c1.006-.455,22.517-10.102,32.335-13.663,2.106-3.427,4.844-2.715,5.68-2.337,6.504,2.947,10.854,9.44,10.854,9.44-1.102.622-15.228,12.704-17.476,12.319-1.564,3.55-15.974,10.157-15.974,10.157,0,0-.874.599-2.352,1.523-.626-5.781-5.433-17.031-13.067-17.439Z"/><path class="i" d="m82.266,182.261c-4.031,2.84-20.073-13.778-13.26-18.825,6.813-5.047,21.384,13.102,13.26,18.825Z"/><path class="l" d="m74.269,162.779s-12.148,7.785-16.882,11.441c-4.734,3.656-6.594,4.71-6.902,9.933-.308,5.223,2.458,43.949,2.458,43.949l9.937,1.124s-1.062-3.787-.869-7.486c.193-3.699,5.567-16.966,5.302-24.451-.264-7.485-1.372-9.534-1.372-9.534,0,0,15.727-5.094,21.516-9.837,5.789-4.743-4.395-20.908-13.188-15.14Z"/><path class="n" d="m69.005,163.436c4.862-4.916,10.053-8.954,14.532-12.898,3.869-9.494,9.872-12.092,14.486-13.822,2.602,2.121,5.295,4.945,7.908,8.206,5.772,7.2,5.641,19.883,5.641,19.883-1.069.676-1.993,1.359-4.257,1.087-1.384,3.623-11.282,7.91-11.282,7.91,0,0-8.051,5.06-13.768,8.459-.551-7.908-7.078-14.739-13.26-18.825Z"/><path class="f" d="m102.844,145.695s2.163,3.209,4.013,7.158c1.851,3.949.905,9.08.905,8.675s-2.443-4.926-3.585-8.675-1.333-7.158-1.333-7.158Z"/></g><g><g><path class="j" d="m90.446,46.258c0-7.184,4.368-15.53,9.756-18.641,2.431-1.403,4.651-1.494,6.359-.519h0l3.147,1.781-12.077,27.399-3.67-2.127c-2.131-1.156-3.515-3.891-3.515-7.892Z"/><path class="e" d="m93.98,48.242c0,7.184,4.368,10.486,9.756,7.376,5.388-3.111,9.756-11.457,9.756-18.641s-4.368-10.487-9.756-7.376c-5.389,3.111-9.756,11.457-9.756,18.641Z"/><g><path class="h" d="m108.942,36.485c.018-2.404-.58-4.258-1.59-5.447,2.964-.158,5.041,2.445,5.008,6.918-.045,5.859-3.689,12.692-8.141,15.262-2.625,1.516-4.938,1.199-6.39-.508.919-.049,1.92-.355,2.973-.963,4.452-2.57,8.097-9.403,8.141-15.263Z"/><path class="h" d="m104.378,32.001c1.053-.608,2.054-.914,2.973-.963,1.01,1.188,1.608,3.043,1.59,5.447-.044,5.859-3.689,12.693-8.141,15.263-1.053.608-2.055.914-2.973.963-1.01-1.188-1.608-3.043-1.59-5.447.044-5.859,3.689-12.693,8.141-15.263Z"/></g></g><g><path class="h" d="m92.734,50.755c0-8.879,5.398-19.194,12.058-23.039,3.005-1.735,5.749-1.847,7.86-.642h0l3.889,2.201-14.926,33.864-4.536-2.629c-2.634-1.428-4.344-4.809-4.344-9.755Z"/><path class="e" d="m97.101,53.208c0,8.879,5.398,12.961,12.058,9.116,6.659-3.845,12.058-14.16,12.058-23.039s-5.398-12.961-12.058-9.116c-6.66,3.845-12.058,14.16-12.058,23.039Z"/><path class="h" d="m99.064,52.247c-.057,7.554,4.549,10.992,10.29,7.678,5.74-3.314,10.439-12.124,10.496-19.679.057-7.554-4.549-10.992-10.289-7.677-5.74,3.314-10.44,12.124-10.497,19.678Z"/></g><g><g><path class="s" d="m106.975,46.521c0-1.418.863-3.066,1.926-3.681.48-.277.918-.295,1.256-.102h0l.621.352-2.384,5.409-.725-.42c-.421-.228-.694-.768-.694-1.558Z"/><path class="k" d="m107.673,46.912c0,1.418.863,2.07,1.926,1.456,1.064-.614,1.926-2.262,1.926-3.68s-.862-2.07-1.926-1.456c-1.064.614-1.926,2.262-1.926,3.68Z"/><g><path class="q" d="m110.627,44.591c.003-.475-.115-.841-.314-1.075.585-.031.995.483.989,1.366-.009,1.157-.729,2.506-1.608,3.013-.518.299-.975.237-1.262-.1.182-.01.379-.07.587-.19.879-.507,1.599-1.857,1.608-3.013Z"/><path class="s" d="m109.726,43.706c.208-.12.405-.18.587-.19.2.234.317.601.314,1.075-.009,1.157-.729,2.506-1.608,3.013-.208.12-.405.18-.587.19-.199-.234-.317-.601-.314-1.075.009-1.157.728-2.506,1.607-3.013Z"/></g></g><path class="k" d="m108.26,46.456c0-.968.588-2.092,1.314-2.512.327-.189.617-.181.847-.05h0l116.689,71.443-.014.033c.337.123.571.485.571,1.077,0,.968-.588,2.093-1.315,2.512-.302.174-.567.168-.789.068l-.012.029-.115-.07c-.006-.004-.012-.007-.018-.011L108.725,47.539l.016-.035c-.288-.156-.481-.509-.481-1.048Z"/><g><path class="h" d="m212.836,123.303c0-8.879,5.399-19.194,12.058-23.039,3.005-1.735,5.749-1.847,7.86-.641h0l3.889,2.201-14.926,33.864-4.536-2.629c-2.634-1.429-4.344-4.81-4.344-9.755Z"/><path class="e" d="m217.203,125.756c0,8.879,5.398,12.961,12.059,9.116,6.659-3.845,12.058-14.16,12.058-23.039s-5.399-12.961-12.058-9.116c-6.66,3.845-12.059,14.16-12.059,23.039Z"/><path class="h" d="m219.166,124.795c-.057,7.554,4.55,10.992,10.29,7.678,5.74-3.314,10.44-12.124,10.497-19.679.057-7.554-4.55-10.991-10.29-7.677-5.74,3.314-10.439,12.124-10.497,19.679Z"/></g><g><path class="h" d="m220.138,125.328c0-7.184,4.368-15.53,9.756-18.641,2.431-1.404,4.651-1.494,6.359-.519h0l3.147,1.781-12.077,27.399-3.67-2.127c-2.131-1.156-3.515-3.891-3.515-7.892Z"/><path class="e" d="m223.672,127.313c0,7.184,4.368,10.486,9.756,7.375,5.388-3.111,9.756-11.457,9.756-18.641s-4.368-10.486-9.756-7.375c-5.388,3.111-9.756,11.456-9.756,18.641Z"/><g><path class="h" d="m238.634,115.555c.018-2.404-.58-4.259-1.591-5.447,2.964-.158,5.041,2.445,5.007,6.918-.044,5.859-3.689,12.693-8.141,15.263-2.625,1.516-4.938,1.199-6.39-.509.919-.049,1.92-.354,2.973-.962,4.452-2.57,8.097-9.404,8.141-15.263Z"/><path class="h" d="m234.07,111.071c1.053-.608,2.054-.914,2.973-.963,1.01,1.188,1.608,3.043,1.591,5.447-.044,5.859-3.689,12.692-8.141,15.263-1.053.608-2.054.914-2.973.962-1.011-1.188-1.608-3.042-1.59-5.446.044-5.859,3.689-12.693,8.141-15.263Z"/></g></g><g><path class="s" d="m231.153,122.598c0-1.418.862-3.066,1.926-3.68.48-.277.918-.295,1.256-.103h0l.622.352-2.384,5.409-.725-.42c-.421-.228-.694-.768-.694-1.558Z"/><path class="k" d="m231.85,122.99c0,1.418.862,2.07,1.926,1.456,1.064-.614,1.926-2.262,1.926-3.681s-.863-2.07-1.926-1.456c-1.064.614-1.926,2.262-1.926,3.68Z"/><g><path class="q" d="m234.804,120.668c.004-.475-.114-.841-.314-1.075.585-.031.995.483.988,1.366-.009,1.156-.728,2.506-1.607,3.013-.518.299-.975.237-1.262-.1.181-.01.379-.07.587-.19.879-.507,1.598-1.856,1.607-3.013Z"/><path class="s" d="m233.903,119.783c.208-.12.405-.18.587-.19.199.235.318.601.314,1.075-.009,1.157-.729,2.506-1.607,3.013-.208.12-.406.18-.587.19-.199-.235-.317-.601-.314-1.076.009-1.157.728-2.506,1.607-3.013Z"/></g></g><g><polygon class="s" points="232.989 123.49 240.312 127.729 241.715 124.194 234.572 120.034 232.989 123.49"/><path class="s" d="m232.61,122.516c0,.915.556,1.335,1.242.939.686-.396,1.243-1.459,1.243-2.373s-.556-1.335-1.243-.939c-.686.396-1.242,1.459-1.242,2.373Z"/><path class="k" d="m239.729,126.662c0,.915.556,1.335,1.242.939s1.242-1.459,1.242-2.374-.556-1.335-1.242-.939-1.242,1.459-1.242,2.373Z"/></g></g></g><g><path class="l" d="m148.485,64.672c-.258-.044-3.615-.107-5.117,3.541-1.502,3.649,0,4.507,0,4.507.357.375.912,1.02,1.824.805.322.755,1.247,1.239,2.379,1.073,0,.912,2.069,1.43,2.375,1.368,1.037-.212,2.364-1.058,2.706-1.536-.466-.427-1.405-.883-1.796-1.261,1.348-2.434,2.335-2.968,2.335-2.968l1.643.952s.07-3.047-2.61-3.965c-.003-.898-.208-1.657-1.795-1.454-.671-.39-1.051-.909-1.943-1.062Z"/><path class="m" d="m149.423,68.843s-1.138,1.218-1.681,2.262c-.543,1.044-.317,2.357-.317,2.357,0,0,.277-1.177.976-2.31.699-1.132,1.022-2.309,1.022-2.309Z"/><path class="m" d="m147.158,67.171s-1.137,1.218-1.681,2.262c-.544,1.044-.317,2.358-.317,2.358,0,0,.277-1.178.975-2.31.699-1.132,1.022-2.31,1.022-2.31Z"/></g><g><path class="l" d="m182.234,83.583c-.295-.051-4.137-.123-5.857,4.053-1.719,4.176,0,5.159,0,5.159.409.429,1.044,1.167,2.088.921.368.865,1.427,1.418,2.723,1.228,0,1.044,2.368,1.637,2.718,1.565,1.187-.242,2.142-.85,2.533-1.397-.534-.489-1.105-1.036-1.552-1.469,1.543-2.786,2.473-2.644,2.473-2.644l1.63.998s.591-4.485-2.477-5.536c-.003-1.028-.238-1.897-2.055-1.664-.768-.446-1.203-1.04-2.224-1.215Z"/><path class="m" d="m183.307,88.356s-1.302,1.394-1.924,2.589c-.622,1.195-.363,2.698-.363,2.698,0,0,.316-1.348,1.117-2.644.8-1.295,1.17-2.643,1.17-2.643Z"/><path class="m" d="m180.716,86.443s-1.302,1.394-1.924,2.589c-.622,1.195-.362,2.698-.362,2.698,0,0,.316-1.348,1.116-2.644.8-1.296,1.17-2.643,1.17-2.643Z"/></g><g><path class="n" d="m29.865,213.168c1.7-2.681,4.734-1.86,7.439-.292.22-2.287,1.822-2.968,2.509-3.595,1.172,2.892,3.266,7.45,3.578,10.525.272,2.675-6.346,7.059-9.052,8.614-6.886,3.957-12.252,5.848-16.759.404-1.464-1.768-.827-4.351,1.852-6.299,4.036-2.934,6.833-6.105,10.433-9.357Z"/><path class="v" d="m43.185,217.996s-2.727,2.495-5.595,5.408c-2.868,2.913-6.572,6.956-10.45,7.624-3.878.668-5.32-2.256-6.672-4.121-1.352-1.865-3.55-.957-3.55-.957,0,0-1.218,2.359,2.693,5.329,3.913,2.969,8.141,1.699,11.853-.194,3.712-1.894,8.69-5.785,10.796-7.3,1.053-.758,1.739-2.225,1.595-3.415-.144-1.192-.672-2.371-.672-2.371Z"/><path class="v" d="m35.394,214.452s-2.999,3.613-4.847,5.228c-1.848,1.616-5.486,3.078-6.935,1.294-.984-1.212,3.835-6.08,6.68-8.436,2.846-2.356,5.101,1.913,5.101,1.913Z"/><path class="r" d="m33.469,220.056s-1.38-2.082-2.978-3.112c-1.599-1.03-3.035-1.818-3.035-1.818l-1.192.987s2.072.847,3.546,1.854c1.539,1.053,2.741,2.85,2.741,2.85l.919-.761Z"/><path class="r" d="m31.048,222.112s-1.38-2.083-2.978-3.112c-1.598-1.03-2.77-1.5-2.77-1.5l-.938.889s1.553.627,3.027,1.634c1.54,1.052,2.741,2.849,2.741,2.849l.919-.761Z"/><path class="v" d="m31.92,214.869s2.846.404,3.473-.417-2.863-6.315-4.915-6.123c-2.052.192-.749,2.908-.613,4.839.135,1.931,2.055,1.7,2.055,1.7Z"/></g><g><path class="n" d="m51.706,228.71c1.701-2.681,4.734-1.859,7.439-.291.22-2.286,2.192-3.925,2.88-4.552,1.172,2.892,2.895,8.407,3.208,11.482.272,2.675-6.347,7.059-9.052,8.614-6.886,3.957-12.252,5.848-16.76.404-1.464-1.768-.827-4.351,1.852-6.298,4.036-2.934,6.833-6.105,10.433-9.357Z"/><path class="v" d="m65.026,233.539s-2.727,2.495-5.595,5.408c-2.868,2.913-6.572,6.956-10.45,7.623-3.878.668-5.32-2.256-6.672-4.121s-3.55-.958-3.55-.958c0,0-1.218,2.359,2.694,5.329,3.912,2.969,8.14,1.699,11.853-.194,3.712-1.893,8.689-5.785,10.796-7.3,1.053-.758,1.739-2.224,1.595-3.415-.144-1.191-.672-2.371-.672-2.371Z"/><path class="v" d="m57.234,229.994s-2.999,3.613-4.847,5.228c-1.848,1.616-5.486,3.079-6.935,1.294-.984-1.212,3.835-6.08,6.68-8.436,2.845-2.356,5.101,1.913,5.101,1.913Z"/><path class="g" d="m55.309,235.598s-1.38-2.083-2.978-3.112c-1.598-1.03-3.034-1.818-3.034-1.818l-1.192.987s2.072.847,3.545,1.854c1.54,1.053,2.741,2.85,2.741,2.85l.919-.761Z"/><path class="g" d="m52.889,237.655s-1.38-2.083-2.979-3.112c-1.598-1.03-2.77-1.499-2.77-1.499l-.937.889s1.553.626,3.026,1.634c1.539,1.053,2.741,2.849,2.741,2.849l.919-.761Z"/><path class="v" d="m53.761,230.411s2.846.404,3.473-.417c.627-.82-2.863-6.315-4.915-6.123-2.052.192-.749,2.909-.613,4.839.136,1.931,2.055,1.701,2.055,1.701Z"/></g></g><g><polygon class="e" points="13.271 205.846 35.771 218.119 40.009 207.436 18.057 195.405 13.271 205.846"/><path class="e" d="m12.127,202.904c0,2.764,1.681,4.035,3.754,2.838,2.073-1.197,3.754-4.408,3.754-7.173s-1.681-4.035-3.754-2.838c-2.073,1.197-3.754,4.408-3.754,7.173Z"/><path class="h" d="m34.01,214.894c0,2.764,1.681,4.035,3.754,2.838,2.073-1.197,3.754-4.408,3.754-7.173s-1.681-4.035-3.754-2.838c-2.073,1.197-3.754,4.408-3.754,7.173Z"/></g><g><polygon class="g" points="36.911 215.368 48.161 221.505 50.28 216.163 39.304 210.148 36.911 215.368"/><path class="g" d="m36.339,213.897c0,1.382.84,2.018,1.877,1.419,1.037-.599,1.877-2.204,1.877-3.586s-.84-2.017-1.877-1.419c-1.037.598-1.877,2.204-1.877,3.586Z"/><path class="g" d="m47.281,219.893c0,1.382.84,2.018,1.877,1.419,1.036-.598,1.877-2.204,1.877-3.586s-.84-2.017-1.877-1.419c-1.037.599-1.877,2.204-1.877,3.586Z"/></g><g><polygon class="e" points="45.659 223.54 68.157 235.813 72.396 225.13 50.444 213.099 45.659 223.54"/><path class="e" d="m44.514,220.598c0,2.764,1.681,4.035,3.754,2.838,2.073-1.197,3.754-4.408,3.754-7.173s-1.68-4.035-3.754-2.838c-2.073,1.197-3.754,4.408-3.754,7.173Z"/><path class="h" d="m66.397,232.588c0,2.764,1.681,4.035,3.754,2.838,2.073-1.197,3.754-4.408,3.754-7.173s-1.681-4.035-3.754-2.838c-2.073,1.197-3.754,4.408-3.754,7.173Z"/></g></g></g></g></svg>