<?xml version="1.0" encoding="UTF-8"?><svg id="b" xmlns="http://www.w3.org/2000/svg" xmlns:xlink="http://www.w3.org/1999/xlink" viewBox="0 0 256 256"><defs><style>.e{fill:none;}.f{fill:#f7e6cb;}.g{fill:#00b8b0;}.h{fill:#005970;}.i{fill:#008680;}.j{fill:#e8bc93;}.k{fill:#e94e1b;}.l{fill:#ededed;}.m{fill:#fff;}.n{fill:#e8e8e8;}.o{fill:#eddabb;}.p{fill:#ffcea1;}.q{fill:#e6d3b5;}.r{fill:#988671;}.s{fill:#00a19a;}.t{fill:#9c8a6d;}.u{fill:#853d32;}.v{fill:#a1947f;}.w{fill:#c44217;}.x{fill:#b85445;}.y{fill:#303030;}.z{fill:#2f596e;}.aa{fill:#baaa8f;}.ab{fill:#bd3f16;}.ac{fill:#c24117;}.ad{fill:#cbbba0;}.ae{fill:#d4491b;}.af{fill:#dadada;}.ag{fill:#b0a28b;}.ah{fill:#963212;}.ai{fill:#96846f;}.aj{fill:#878787;}.ak{fill:#2e5370;}.al{fill:#396c85;}.am{fill:#575756;}.an{fill:#3c3c3b;}.ao{fill:#3b7343;}.ap{clip-path:url(#d);}</style><clipPath id="d"><rect class="e" x="3.631" y="3.631" width="248.738" height="248.738"/></clipPath></defs><g id="c"><g><g class="ap"><g><path class="t" d="m100.334,127.596l-11.907,7.266-8.423-.752-37.647,20.544c-2.722-1.586-10.077-22.038-10.077-22.038,5.834,3.103,19.143-3.54,31.82-10.183,11.601-6.078,22.673-12.156,27.003-10.768,9.95,3.189,9.397,9.847,9.231,15.931"/><path class="y" d="m85.447,164.654l12.588,4.318c7.925-1.227,12.859,1.753,12.395,6.161l-.011.002c-.043.951-.735,1.845-2.06,2.435l-14.38,6.4c-2.535,1.129-6.412.721-8.657-.912-1.204-.875-1.689-1.924-1.494-2.882l-.016.003,1.635-15.524h0Z"/><path class="y" d="m87.342,185.954c-1.708-1.192-3.687-2.365-3.671-4.447.011-.938-.051-2.389.35-2.936.653-1.152,2.014-.07,2.82.41,1.215.725,2.028,1.823,3.072,2.742,1.724,1.519,2.896,1.825,5.181.958,4.736-1.798,11.59-4.58,15.364-7.962.106,1.152.081,2.204-.914,2.992-5.555,4.391-18.634,10.735-22.201,8.243h0Z"/><path class="y" d="m100.513,170.147c.089-15.332-.545-49.555-1.494-51.274-1.079-1.951-2.901-4.249-4.763-5.474-2.624-1.726-5.769-1.071-8.855-.478-3.722.716-6.648,1.418-7.29,5.154-.643,3.736,5.311,50.023,5.989,52.163.42,1.332,2.657,1.185,4.807,1.038,1.301-.089,2.57-.178,3.381.063l8.226-1.191"/><path class="y" d="m84.124,170.319c.168.797.689,1.584,1.554,2.263l.651.472c.277.177.569.335.876.472.296.148.599.276.925.384,3.091,1.131,7.133,1.023,9.85-.413.561-.296,1.033-.63,1.407-.994.746-.718,1.12-1.525,1.131-2.351v-.03c0-1.181-.756-2.381-2.283-3.345-3.139-1.978-8.364-2.185-11.65-.443-1.966,1.033-2.792,2.529-2.459,3.985h0Z"/><path class="y" d="m107.749,180.739l12.588,4.319c7.925-1.227,12.859,1.753,12.395,6.16l-.011.002c-.043.951-.735,1.845-2.06,2.435l-14.38,6.4c-2.535,1.129-6.412.721-8.657-.912-1.204-.875-1.689-1.923-1.494-2.882l-.016.003,1.635-15.525h0Z"/><path class="y" d="m109.641,202.04c-1.705-1.192-3.687-2.365-3.668-4.447.011-.938-.051-2.389.35-2.936.653-1.152,2.014-.07,2.82.41,1.215.725,2.025,1.823,3.072,2.742,1.724,1.519,2.895,1.825,5.178.958,4.739-1.798,11.593-4.579,15.367-7.962.106,1.152.081,2.204-.916,2.992-5.552,4.391-18.631,10.735-22.201,8.243h0Z"/><path class="an" d="m122.815,186.233c.089-15.332-.545-49.555-1.494-51.274-1.079-1.951-2.901-4.249-4.763-5.474-2.624-1.726-5.693-3.285-8.776-2.692-3.725.716-6.726,3.631-7.369,7.368-.645,3.736,5.311,50.023,5.989,52.162.675,2.139,6.038.464,8.188,1.101l8.226-1.191h0Z"/><path class="an" d="m106.426,186.404c.168.797.689,1.584,1.553,2.263l.651.472c.277.177.569.335.876.472.296.148.599.276.925.384,3.091,1.131,7.133,1.023,9.849-.413.561-.295,1.033-.63,1.407-.994.748-.718,1.12-1.525,1.131-2.351v-.03c0-1.181-.756-2.381-2.283-3.345-3.137-1.977-8.364-2.184-11.65-.443-1.968,1.033-2.792,2.529-2.459,3.985h0Z"/><path class="an" d="m39.033,193.678c0,1.441-1.168,2.61-2.608,2.61s-2.611-1.168-2.611-2.61,1.169-2.61,2.611-2.61,2.608,1.168,2.608,2.61h0Z"/><path class="an" d="m32.892,220.083c0,1.441-1.169,2.61-2.608,2.61s-2.611-1.168-2.611-2.61,1.169-2.61,2.611-2.61,2.608,1.168,2.608,2.61h0Z"/><path class="an" d="m74.906,232.211c0,1.441-1.168,2.609-2.611,2.609s-2.611-1.168-2.611-2.609,1.168-2.61,2.611-2.61,2.611,1.168,2.611,2.61h0Z"/><path class="an" d="m106.415,213.482c0,1.442-1.168,2.61-2.611,2.61s-2.608-1.168-2.608-2.61,1.168-2.61,2.608-2.61,2.611,1.168,2.611,2.61h0Z"/><path class="an" d="m87.079,188.094c0,1.442-1.168,2.61-2.608,2.61s-2.611-1.168-2.611-2.61,1.168-2.609,2.611-2.609,2.608,1.168,2.608,2.609h0Z"/><polygon class="am" points="87.255 186.059 87.255 182.468 82.424 184.637 64.243 201.565 37.894 188.709 34.058 187.333 34.058 190.923 56.327 206.137 27.006 213.043 27.006 216.633 29.468 219.423 61.41 211.897 69.639 231.24 74.996 230.751 74.996 227.16 72.469 210.886 106.876 212.344 107.724 209.252 107.724 205.661 74.22 204.501 87.255 186.059 87.255 186.059"/><polygon class="aj" points="87.255 182.468 82.424 181.047 64.243 197.975 37.894 185.118 34.058 187.333 56.327 202.546 27.006 213.043 29.468 215.833 61.41 208.307 69.639 227.65 74.996 227.16 72.469 207.295 106.876 208.754 107.724 205.661 74.22 200.91 87.255 182.468 87.255 182.468"/><path class="am" d="m69.248,201.293c1.968,1.136,1.968,2.978,0,4.114-1.968,1.136-5.157,1.136-7.125,0-1.968-1.136-1.968-2.978,0-4.114,1.968-1.136,5.157-1.136,7.125,0h0Z"/><polygon class="am" points="70.726 170.907 60.648 170.907 60.648 203.35 70.726 203.35 70.726 170.907 70.726 170.907"/><path class="h" d="m65.309,140.427l-39.848,23.007c-1.838,1.061-3.329.201-3.329-1.922v-.128c0-4.901,3.44-10.861,7.686-13.311l35.491-20.491c1.838-1.061,3.329-.201,3.329,1.922v5.159c0,2.123-1.491,4.704-3.329,5.765"/><polyline class="ab" points="59.32 184.585 22.796 163.426 67.527 127.283 104.192 148.484 59.32 184.585"/><path class="k" d="m101.652,161.433l-39.851,23.007c-1.838,1.061-3.329.201-3.329-1.922v-.128c0-4.901,3.44-10.861,7.686-13.311l35.494-20.491c1.838-1.061,3.327-.201,3.327,1.922v5.159c0,2.123-1.488,4.704-3.327,5.765h0Z"/><path class="an" d="m121.641,140.306l-11.904,7.267-8.426-.753-40.661,15.144c-2.722-1.585-10.34-25.348-10.34-25.348,5.542,2.946,17.446-1.626,29.733-6.198,12.493-4.648,25.382-9.297,32.368-6.043,9.15,4.259,9.399,9.846,9.231,15.93"/><polygon class="ad" points="224.926 194.863 231.758 190.918 231.756 95.522 224.924 99.467 224.926 194.863 224.926 194.863"/><polygon class="v" points="218.092 190.918 224.924 194.863 224.924 99.467 218.092 95.522 218.092 190.918 218.092 190.918"/><polygon class="ad" points="35.023 186.464 41.858 182.52 41.855 87.124 35.023 91.068 35.023 186.464 35.023 186.464"/><polygon class="v" points="28.191 182.52 35.023 186.464 35.023 91.068 28.191 87.124 28.191 182.52 28.191 182.52"/><polyline class="ad" points="23.761 75.26 138.553 140.805 235.261 83.658 120.469 18.114 23.761 75.26"/><polygon class="ad" points="138.555 150.745 235.264 93.602 235.264 83.66 138.553 140.804 138.555 150.745 138.555 150.745"/><polyline class="ag" points="23.761 85.203 138.553 150.745 138.553 140.805 23.761 75.262 23.761 85.203"/><polygon class="q" points="138.555 150.745 235.264 93.602 235.264 83.66 138.553 140.804 138.555 150.745 138.555 150.745"/><rect class="aa" x="138.554" y="150.75" width=".001" height="16.626"/><polygon class="ad" points="138.555 150.745 145.385 146.801 145.385 146.806 145.387 163.431 145.387 242.197 138.555 246.142 138.555 167.376 138.555 150.75 138.555 150.745 138.555 150.745"/><polygon class="v" points="131.723 146.801 138.555 150.745 138.555 150.75 138.553 167.376 138.553 246.142 131.721 242.197 131.721 171.32 131.721 154.695 131.723 146.801 131.723 146.801"/><path class="ah" d="m104.403,89.478c1.535,1.989,3.261,2.821,5.105,2.949l27.675-15.978-5.108-2.949-27.672,15.978"/><polyline class="ac" points="108.722 91.972 127.741 102.953 155.413 86.975 155.413 86.362 136.395 75.994 108.722 91.359 108.722 91.972"/><polyline class="ac" points="86.171 78.952 105.19 89.933 105.19 89.32 132.865 73.955 113.844 62.974 86.171 78.339 86.171 78.952"/><polyline class="ab" points="104.401 88.865 109.508 91.814 137.184 75.836 132.076 72.887 104.401 88.865"/><polyline class="k" points="108.722 91.359 127.741 102.34 155.413 86.362 136.395 75.381 108.722 91.359"/><polyline class="k" points="86.171 78.339 105.19 89.32 132.865 73.342 113.844 62.361 86.171 78.339"/><polyline class="o" points="88.771 76.523 114.426 61.711 133.448 74.522 107.792 89.334 88.771 76.523"/><path class="o" d="m114.426,61.711l16.283,8.218c1.486.756,2.738,2.843,2.738,4.561v.032l-19.973-11.532.952-1.28"/><path class="q" d="m152.472,83.676l-16.283-10.585c-.773-.498-1.48-.565-1.985-.275-.466.269-.756.847-.756,1.673v.032l19.976,11.531-.952-2.377"/><polyline class="q" points="108.551 87.629 134.204 72.816 152.472 83.676 126.816 98.488 108.551 87.629"/><polyline class="ad" points="152.472 83.676 153.423 86.053 127.768 100.865 126.816 98.488 152.472 83.676"/><path class="f" d="m88.771,76.523l16.283,8.218c1.486.756,2.738,2.843,2.738,4.561v.032l-19.973-11.532.952-1.28"/><path class="f" d="m126.816,98.488l-16.283-10.585c-.773-.498-1.48-.565-1.982-.275-.469.269-.759.846-.759,1.674v.032l19.976,11.531-.952-2.377"/><polyline class="r" points="107.543 84.055 107.47 84.037 92.244 76.338 92.171 76.117 92.393 76.045 107.616 83.743 107.689 83.965 107.543 84.055"/><polyline class="r" points="108.524 83.484 108.451 83.466 93.225 75.768 93.152 75.547 93.374 75.474 108.597 83.172 108.671 83.394 108.524 83.484"/><polyline class="r" points="109.503 82.913 109.43 82.895 94.204 75.197 94.134 74.975 94.353 74.903 109.579 82.602 109.652 82.823 109.503 82.913"/><polyline class="r" points="110.484 82.342 110.411 82.325 95.185 74.626 95.112 74.405 95.335 74.332 110.558 82.031 110.631 82.252 110.484 82.342"/><polyline class="r" points="111.466 81.772 111.39 81.754 96.167 74.056 96.094 73.834 96.316 73.762 111.539 81.461 111.612 81.682 111.466 81.772"/><polyline class="r" points="112.445 81.201 112.371 81.183 97.146 73.484 97.075 73.263 97.295 73.191 112.52 80.889 112.591 81.111 112.445 81.201"/><polyline class="r" points="113.426 80.63 113.353 80.613 98.127 72.914 98.054 72.693 98.276 72.62 113.499 80.319 113.572 80.54 113.426 80.63"/><polyline class="r" points="114.407 80.06 114.331 80.042 99.109 72.343 99.035 72.122 99.258 72.05 114.481 79.749 114.554 79.97 114.407 80.06"/><polyline class="r" points="115.386 79.488 115.313 79.471 100.087 71.773 100.017 71.551 100.236 71.479 115.459 79.177 115.532 79.398 115.386 79.488"/><polyline class="r" points="116.368 78.918 116.294 78.9 101.069 71.202 100.995 70.98 101.218 70.908 116.441 78.607 116.514 78.828 116.368 78.918"/><polyline class="r" points="117.346 78.347 117.273 78.33 102.05 70.631 101.977 70.41 102.197 70.338 117.422 78.036 117.495 78.257 117.346 78.347"/><polyline class="r" points="118.328 77.776 118.254 77.759 103.032 70.061 102.958 69.839 103.178 69.767 118.401 77.465 118.474 77.686 118.328 77.776"/><polyline class="r" points="119.309 77.206 119.233 77.188 104.01 69.49 103.937 69.268 104.159 69.196 119.382 76.895 119.455 77.116 119.309 77.206"/><polyline class="r" points="120.288 76.635 120.215 76.617 104.992 68.919 104.918 68.698 105.138 68.625 120.364 76.324 120.434 76.545 120.288 76.635"/><polyline class="r" points="121.269 76.065 121.196 76.047 105.97 68.348 105.897 68.127 106.119 68.055 121.342 75.753 121.416 75.975 121.269 76.065"/><polyline class="r" points="122.251 75.493 122.175 75.476 106.952 67.778 106.879 67.557 107.101 67.484 122.324 75.182 122.397 75.404 122.251 75.493"/><polyline class="r" points="123.229 74.923 123.156 74.905 107.933 67.207 107.86 66.985 108.08 66.913 123.303 74.612 123.376 74.833 123.229 74.923"/><polyline class="r" points="124.211 74.353 124.135 74.335 108.912 66.636 108.839 66.415 109.061 66.342 124.284 74.041 124.357 74.263 124.211 74.353"/><polyline class="r" points="125.19 73.781 125.116 73.764 109.893 66.066 109.82 65.844 110.04 65.772 125.265 73.47 125.339 73.691 125.19 73.781"/><polyline class="r" points="126.171 73.211 126.098 73.193 110.875 65.495 110.802 65.273 111.021 65.201 126.244 72.899 126.317 73.121 126.171 73.211"/><polyline class="r" points="127.152 72.64 127.079 72.623 111.853 64.924 111.78 64.703 112.003 64.63 127.226 72.329 127.299 72.55 127.152 72.64"/><polyline class="r" points="128.134 72.069 128.058 72.052 112.835 64.353 112.762 64.132 112.981 64.06 128.207 71.758 128.28 71.979 128.134 72.069"/><polyline class="r" points="122.126 67.985 113.814 63.782 113.743 63.561 113.963 63.489 116.986 65.017 122.126 67.985"/><polyline class="r" points="129.113 71.499 129.039 71.481 122.126 67.985 116.986 65.017 129.188 71.187 129.259 71.408 129.113 71.499"/><polyline class="ai" points="127.163 96.456 127.074 96.43 112.599 87.021 112.55 86.794 112.778 86.745 127.253 96.154 127.301 96.382 127.163 96.456"/><polyline class="ai" points="128.15 95.887 128.061 95.861 113.583 86.451 113.537 86.224 113.765 86.175 128.24 95.584 128.288 95.812 128.15 95.887"/><polyline class="ai" points="129.137 95.317 129.047 95.291 114.57 85.882 114.524 85.654 114.752 85.606 129.226 95.014 129.275 95.242 129.137 95.317"/><polyline class="ai" points="130.124 94.747 130.032 94.721 115.557 85.312 115.511 85.084 115.739 85.036 130.213 94.445 130.262 94.672 130.124 94.747"/><polyline class="ai" points="131.111 94.177 131.018 94.151 116.544 84.742 116.495 84.514 116.723 84.466 131.2 93.875 131.249 94.103 131.111 94.177"/><polyline class="ai" points="132.095 93.607 132.005 93.581 117.531 84.172 117.482 83.945 117.71 83.896 132.184 93.305 132.233 93.532 132.095 93.607"/><polyline class="ai" points="133.082 93.038 132.992 93.012 118.517 83.602 118.469 83.375 118.696 83.326 133.171 92.735 133.22 92.963 133.082 93.038"/><polyline class="ai" points="134.068 92.468 133.979 92.442 119.504 83.033 119.455 82.805 119.683 82.757 134.158 92.165 134.207 92.393 134.068 92.468"/><polyline class="ai" points="135.055 91.898 134.966 91.872 120.488 82.463 120.44 82.235 120.67 82.187 135.145 91.596 135.194 91.824 135.055 91.898"/><polyline class="ai" points="136.039 91.328 135.95 91.302 121.475 81.893 121.426 81.665 121.657 81.616 136.132 91.026 136.178 91.253 136.039 91.328"/><polyline class="ai" points="137.026 90.758 136.937 90.732 122.462 81.323 122.413 81.096 122.641 81.047 137.118 90.456 137.165 90.684 137.026 90.758"/><polyline class="ai" points="138.013 90.189 137.924 90.163 123.449 80.754 123.4 80.526 123.628 80.477 138.103 89.886 138.151 90.114 138.013 90.189"/><polyline class="ai" points="139 89.619 138.911 89.593 124.433 80.184 124.387 79.956 124.615 79.908 139.089 89.316 139.138 89.544 139 89.619"/><polyline class="ai" points="139.987 89.049 139.897 89.023 125.42 79.614 125.374 79.386 125.602 79.337 140.076 88.747 140.125 88.974 139.987 89.049"/><polyline class="ai" points="140.974 88.479 140.881 88.453 126.407 79.044 126.358 78.816 126.586 78.768 141.063 88.177 141.109 88.405 140.974 88.479"/><polyline class="ai" points="141.961 87.909 141.868 87.883 127.394 78.474 127.345 78.247 127.573 78.198 142.05 87.606 142.099 87.834 141.961 87.909"/><polyline class="ai" points="142.945 87.34 142.855 87.314 128.381 77.904 128.332 77.677 128.559 77.628 143.034 87.037 143.083 87.265 142.945 87.34"/><polyline class="ai" points="143.931 86.77 143.842 86.743 129.367 77.335 129.319 77.107 129.546 77.058 144.021 86.467 144.07 86.695 143.931 86.77"/><polyline class="ai" points="144.918 86.2 144.829 86.174 130.354 76.765 130.305 76.537 130.533 76.488 145.008 85.898 145.057 86.125 144.918 86.2"/><polyline class="ai" points="145.905 85.63 145.816 85.604 131.338 76.195 131.29 75.968 131.52 75.919 145.995 85.327 146.044 85.555 145.905 85.63"/><polyline class="ai" points="146.889 85.061 146.8 85.035 132.325 75.625 132.276 75.398 132.507 75.349 146.982 84.758 147.028 84.986 146.889 85.061"/><polyline class="ai" points="147.876 84.491 147.787 84.465 133.312 75.055 133.263 74.828 133.491 74.779 147.966 84.188 148.014 84.416 147.876 84.491"/><polyline class="ai" points="148.863 83.921 148.774 83.895 134.299 74.486 134.25 74.258 134.478 74.209 148.953 83.618 149.001 83.846 148.863 83.921"/><path class="m" d="m38.073,130.616c-.209,5.336,12.666,10.912,24.194,11.831,1.483.115,2.944.156,4.354.104,6.537-.219,11.945-5.169,12.843-11.653,1.6-11.455,4.858-33.875,6.434-44.704.542-3.769.887-6.14.887-6.14-3.099-7.602-10.419-13.492-17.489-17.856-11.736-7.247-24.321-.658-27.098,11.726l-.011.011c-.366,1.639-.564,3.383-.564,5.211l-3.549,51.47"/><path class="p" d="m65.352,44.084c-.241,2.299-.477,4.609-.317,6.912.16,2.303.74,4.622,2.02,6.544,1.442,2.161,3.763,3.69,6.295,4.239.794.177,1.608.255,2.424.224.813-.033,1.635-.165,2.359-.538,1.131-.575,1.892-1.646,2.494-2.786v-.008c.136-.254.263-.509.382-.765,2.782-5.899,4.105-12.399,4.72-18.894.089-.961.165-1.94.011-2.897-.456-2.826-2.928-5.037-5.68-5.832-2.754-.796-5.72-.394-8.472.407-.754.222-1.516.475-2.161.927-.615.429-1.101,1.017-1.681,1.495-.716.587-2.033,7.52-2.394,10.972"/><path class="j" d="m75.424,62.01c-.699,0-1.394-.079-2.074-.231h0l-.22-.421c-.079-.288-.038-.596,0-.893.184-1.379.369-2.758.591-4.131.55-3.429,2.05-2.003,3.042-5.33-.412,5.655.293,8.407,2.025,8.407.521,0,1.133-.248,1.838-.74v.008c-.602,1.139-1.364,2.211-2.494,2.786-.724.373-1.545.505-2.359.538-.117.005-.233.007-.35.007"/><polygon class="p" points="61.809 42.315 77.742 44.849 74.462 65.471 58.528 62.937 61.809 42.315 61.809 42.315"/><path class="p" d="m61.435,59.471c-3.405,1.305-3.869,4.225-1.036,6.522,2.833,2.297,7.889,3.102,11.295,1.797,3.408-1.305,3.872-4.225,1.038-6.522-2.833-2.297-7.889-3.102-11.297-1.796h0Z"/><path class="an" d="m82.104,40.577c-2.562.986-4.026,3.373-4.704,6.034-.678,2.661-.71,5.453-1.38,8.116-.67,2.663-2.182,5.35-4.736,6.358-1.789.705-3.796.481-5.691.154-2.481-.427-5.748-1.09-6.325-3.54-7.675-32.432,11.891-31.427,14.185-31.263,8.087.578,17.029,7.116,12.254,12.798-.732.871-2.722,1.003-3.603,1.343h0Z"/><path class="p" d="m77.073,44.743c.873.165,1.385,1.065,1.526,1.88.176,1.017-.005,2.038-.19,3.038-.233,1.271-.485,2.589-1.293,3.613-.217.275-.491.535-.857.608-.545.109-1.125-.254-1.407-.72-.282-.467-.331-1.012-.352-1.535-.062-1.513.041-3.025.306-4.503.106-.591.247-1.194.613-1.678s1.009-.824,1.654-.702h0Z"/><path class="ab" d="m17.904,159.632l-8.489-68.034c-.226-1.816.553-3.642,1.766-4.138l4.26-1.739c1.28-.523,2.545.632,2.79,2.545l8.567,66.911c.209,1.623-.39,3.291-1.426,3.974l-4.338,2.862c-1.356.895-2.865-.253-3.13-2.382h0Z"/><polygon class="ab" points="56.403 108.85 16.949 85.873 19.25 162.082 58.892 185.123 56.403 108.85 56.403 108.85"/><path class="k" d="m57.734,182.797l-8.489-68.033c-.228-1.816.553-3.643,1.765-4.138l4.259-1.739c1.282-.523,2.546.632,2.792,2.545l8.567,66.911c.209,1.623-.39,3.291-1.426,3.973l-4.338,2.862c-1.358.895-2.866-.252-3.131-2.382"/><path class="p" d="m110.872,102.125c1.217,1.664,3.6,2.092,5.607,1.617,2.006-.475,3.752-1.672,5.506-2.756,1.754-1.084,2.269-1.347,4.24-1.956,1-.31,1.448-.3,2.397-.52,1.006-.234,1.719-1.985-.076-1.916,3.18-.666,2.475-2.711,1.385-2.63,1.117-.434.957-2.499-.906-2.271,1.464-.448.599-1.626-.811-1.728-4.739-.342-9.587.75-13.626,3.249-1.54.954-3.007,2.144-3.847,3.751-.843,1.606-.941,3.697.13,5.16h0Z"/><path class="p" d="m119.447,87.382c.268-.446.773-.81,1.293-.77.605.047.973.704,1.074,1.303.241,1.469-1.413,3.377-2.508,4.387-1.093,1.011-1.583,1.201-2.993,1.682-1.41.48-2.86.871-4.18,1.561,3.172-2.717,5.666-5.439,7.315-8.163h0Z"/><path class="m" d="m110.742,96.965c2.117-1.42,6.241,4.934,3.56,6.959l-26.076,15.302c-4.064,1.586-8.643-.423-10.229-4.486-1.586-4.063.423-8.642,4.487-10.228l28.258-7.547"/><path class="p" d="m96.522,77.857c.784-.332,1.594-.656,2.443-.674.605-.013,1.201.131,1.792.275,1.515.37,3.034.739,4.552,1.109.464.112.925.225,1.366.401,1.003.399,1.873,1.126,2.445,2.044.171.276.32.605.228.916l-.279.403c-.605.526-1.507.412-2.31.412-1.491,0-2.939.502-4.292,1.124-1.356.622-2.652,1.371-4.04,1.913.968-.495,2.001-.937,3.088-.966,1.09-.029,2.248.439,2.776,1.391l.081.292-.106.225c-.369.495-.954.821-1.567.872-.461.039-.925-.071-1.385-.031-.572.05-1.095.323-1.621.545-2.201.925-4.753.984-6.992.162-.428-.157-.849-.346-1.22-.612-.884-.633-1.421-1.641-1.822-2.651-.092-.228-.179-.464-.179-.709l.103-.548c.474-1.494,1.545-2.745,2.801-3.685,1.253-.94,2.695-1.597,4.137-2.208h0Z"/><path class="p" d="m104.268,86.721c-.369.495-.954.821-1.567.872-.461.039-.925-.071-1.385-.031-.572.05-1.095.323-1.621.545-2.201.925-4.753.984-6.992.162-.428-.157-.849-.346-1.22-.612-.884-.633-1.421-1.641-1.822-2.651-.092-.228-.179-.464-.179-.709l.103-.548c.474-1.494,1.545-2.745,2.798-3.685,1.255-.94,2.698-1.597,4.14-2.208.472-.2.952-.396,1.448-.525l1.036,6.409s.466,1.121.854,1.406c.537-.19,1.09-.31,1.657-.334,3.763-.16,2.801,1.84,2.752,1.908h0Z"/><path class="l" d="m87.044,83.589l1.543,7.757,4.471-2.956c.293-2.336-.401-4.392-2.879-5.938l-3.134,1.136"/><path class="af" d="m57.821,59.188c-4.406,8.263,10.313,12.28,19.338,8.381,0,0-1.288-2.076-2.413-3.336-7.515.879-15.998-2.133-15.478-5.983l-1.448.938h0Z"/><path class="n" d="m65.396,142.574c-1.025,0-2.071-.045-3.129-.127h0c-.092-.104-.184-.212-.277-.323l-.342-2.678c15.657-4.577,12.902-33.073,10.297-54.297l13.951,1.044c-.661,4.548-1.621,11.142-2.63,18.108l-.784.21c-4.064,1.585-6.073,6.165-4.487,10.228.651,1.664,1.8,2.983,3.213,3.852-.667,4.664-1.277,8.955-1.746,12.306-.897,6.484-6.306,11.434-12.843,11.653-.404.015-.813.022-1.225.022"/><path class="ae" d="m61.99,142.125c-.55-.668-1.082-1.458-1.594-2.371.431-.086.849-.188,1.253-.306l.342,2.678"/><path class="n" d="m81.21,118.592h0c-1.412-.869-2.562-2.188-3.213-3.852-1.586-4.063.423-8.642,4.487-10.228l.784-.21c-.689,4.767-1.402,9.708-2.058,14.29"/><path class="m" d="m78.629,76.132c4.341-.649,8.152,3.918,8.152,3.918l5.289,28.711c.55,4.349-2.847,10.435-7.198,10.984-4.349.55-7.418-4.166-8.521-11.218l-4.403-23.372c-.64-4.339,2.342-8.382,6.68-9.022h0Z"/><polygon class="ak" points="135.966 38.613 138.845 38.613 138.845 43.656 135.966 43.656 135.966 38.613 135.966 38.613"/><polygon class="z" points="138.845 44.324 119.515 55.485 94.402 40.987 94.402 40.318 113.732 29.825 138.845 43.656 138.845 44.324 138.845 44.324"/><polygon class="al" points="138.845 43.656 119.515 54.817 94.402 40.318 113.732 29.157 138.845 43.656 138.845 43.656"/><polygon class="ad" points="96.525 40.059 119.84 53.526 119.84 48.631 96.525 35.164 96.525 40.059 96.525 40.059"/><polygon class="q" points="119.84 53.526 137.864 43.11 137.864 38.073 119.84 48.489 119.84 53.526 119.84 53.526"/><polygon class="z" points="138.845 39.281 119.515 50.442 94.402 35.943 94.402 35.275 113.732 24.782 138.845 38.613 138.845 39.281 138.845 39.281"/><polygon class="al" points="138.845 38.613 119.515 49.774 94.402 35.275 113.732 24.114 138.845 38.613 138.845 38.613"/><polygon class="z" points="133.171 38.613 113.732 27.39 100.076 35.275 119.515 46.497 133.171 38.613 133.171 38.613"/><path class="z" d="m139.423,43.99l-.577.334v-5.711l.577-.334c.477,1.526.521,3.397,0,5.711h0Z"/><polygon class="z" points="113.732 24.114 138.845 38.613 139.423 38.279 114.312 23.78 113.732 24.114 113.732 24.114"/><polygon class="u" points="134.537 32.446 137.417 32.446 137.417 37.489 134.537 37.489 134.537 32.446 134.537 32.446"/><polygon class="w" points="137.417 38.157 118.086 49.318 92.973 34.819 92.973 34.151 112.306 23.658 137.417 37.489 137.417 38.157 137.417 38.157"/><polygon class="k" points="137.417 37.489 118.086 48.65 92.973 34.151 112.306 22.99 137.417 37.489 137.417 37.489"/><polygon class="ad" points="95.096 33.892 118.412 47.359 118.412 42.464 95.096 28.998 95.096 33.892 95.096 33.892"/><polygon class="q" points="118.412 47.359 136.435 36.943 136.435 31.906 118.412 42.323 118.412 47.359 118.412 47.359"/><polygon class="w" points="137.417 33.114 118.086 44.275 92.973 29.776 92.973 29.108 112.306 18.615 137.417 32.446 137.417 33.114 137.417 33.114"/><polygon class="k" points="137.417 32.446 118.086 43.607 92.973 29.108 112.306 17.947 137.417 32.446 137.417 32.446"/><polygon class="w" points="131.742 32.446 112.306 21.223 98.65 29.108 118.086 40.33 131.742 32.446 131.742 32.446"/><path class="w" d="m137.997,37.823l-.58.334v-5.711l.58-.334c.477,1.526.518,3.397,0,5.711h0Z"/><polygon class="x" points="112.306 17.947 137.417 32.446 137.997 32.112 112.884 17.613 112.306 17.947 112.306 17.947"/><polygon class="i" points="116.476 42.214 140.621 33.722 140.621 32.965 121.516 15.611 97.368 23.345 97.368 24.103 116.476 42.214 116.476 42.214"/><polygon class="s" points="116.476 41.457 140.621 32.965 121.516 14.853 97.368 23.345 116.476 41.457 116.476 41.457"/><polygon class="s" points="139.455 29.438 139.925 29.438 139.925 33.21 139.455 32.643 139.455 29.438 139.455 29.438"/><polygon class="q" points="116.999 40.326 139.455 32.643 139.455 27.722 116.999 35.139 116.999 40.326 116.999 40.326"/><polygon class="ad" points="99.165 23.546 116.999 40.326 116.999 35.139 99.165 18.359 99.165 23.546 99.165 23.546"/><path class="i" d="m139.925,33.968l.697-.254c.464-1.967.531-3.683,0-5.023l-.697.309v4.967h0Z"/><polygon class="i" points="116.476 37.942 140.621 29.45 140.621 28.692 121.516 11.338 97.368 19.073 97.368 19.831 116.476 37.942 116.476 37.942"/><polygon class="s" points="97.368 19.074 116.473 37.185 139.876 28.956 140.624 28.691 121.519 10.579 120.781 10.839 97.368 19.074 97.368 19.074"/><polygon class="i" points="134.966 27.485 120.781 14.037 103.026 20.282 117.211 33.729 134.966 27.485 134.966 27.485"/><polygon class="i" points="120.781 10.839 139.876 28.956 139.925 28.999 140.624 28.691 121.519 10.579 120.781 10.839 120.781 10.839"/><polygon class="ao" points="205.319 83.031 170.913 83.031 170.913 86.568 205.319 86.568 205.319 83.031 205.319 83.031"/><path class="i" d="m200.282,79.544c6.718,3.879,6.718,10.169,0,14.048-6.718,3.879-17.611,3.879-24.332,0-6.718-3.879-6.718-10.169,0-14.048,6.721-3.879,17.614-3.879,24.332,0h0Z"/><path class="s" d="m200.282,75.892c6.718,4.098,6.718,10.741,0,14.839-6.718,4.098-17.611,4.098-24.332,0-6.718-4.098-6.718-10.741,0-14.839,6.721-4.097,17.614-4.097,24.332,0h0Z"/><path class="l" d="m194.03,76.627c0,1.188-2.532,1.059-2.481,0v-25.272c0-3.707-1.993-7.161-5.205-9.016-3.213-1.854-7.198-1.852-10.408,0l-1.339.773-1.239-2.147,1.339-.773c3.972-2.295,8.911-2.295,12.889,0,3.974,2.295,6.444,6.573,6.444,11.162v25.272h0Z"/><path class="i" d="m181.193,53.433c4.888,2.822,4.888,7.397,0,10.219-4.885,2.822-12.81,2.822-17.698,0-4.888-2.822-4.888-7.397,0-10.219,4.888-2.822,12.813-2.822,17.698,0h0Z"/><polygon class="i" points="184.859 58.744 159.83 58.744 159.83 53.784 184.859 53.784 184.859 58.744 184.859 58.744"/><path class="s" d="m183.349,50.346h.003l-5.382-6.544h-11.248l-5.203,6.373-.45.489-.114.127h.014c-2.104,2.664-1.269,5.911,2.527,8.104,4.888,2.822,12.813,2.822,17.698,0,4.01-2.315,4.723-5.809,2.155-8.547h0Z"/><path class="g" d="m166.485,35.947v8.802c0,.866.572,1.731,1.716,2.392,2.288,1.321,5.997,1.321,8.285,0,1.144-.66,1.716-1.526,1.716-2.392v-8.802h-11.717Z"/><path class="i" d="m176.487,33.232c2.288,1.321,2.288,3.463,0,4.784s-5.997,1.321-8.285,0-2.288-3.463,0-4.784c2.288-1.321,5.997-1.321,8.285,0h0Z"/><path class="g" d="m173.9,33.777c.862.496.862,1.301,0,1.797-.859.496-2.253.496-3.112,0s-.859-1.301,0-1.797,2.253-.496,3.112,0h0Z"/><path class="l" d="m180.008,83.869c.876.505.876,1.324,0,1.829-.876.505-2.294.505-3.167,0-.876-.505-.876-1.324,0-1.829.873-.505,2.291-.505,3.167,0h0Z"/><path class="k" d="m179.526,83.994c.607.351.607.919,0,1.27-.607.351-1.594.351-2.201,0-.607-.351-.607-.919,0-1.27.607-.351,1.594-.351,2.201,0h0Z"/><polygon class="k" points="179.637 83.031 177.213 83.031 176.869 84.628 179.981 84.628 179.637 83.031 179.637 83.031"/><path class="k" d="m179.282,82.537c.472.273.472.716,0,.989-.474.273-1.242.273-1.713,0-.472-.273-.472-.716,0-.989.472-.273,1.239-.273,1.713,0h0Z"/></g></g><rect class="e" width="256" height="256"/></g></g></svg>