<?xml version="1.0" encoding="UTF-8"?><svg id="b" xmlns="http://www.w3.org/2000/svg" xmlns:xlink="http://www.w3.org/1999/xlink" viewBox="0 0 256 256"><defs><style>.i{fill:none;}.j{fill:#00b0e0;}.k{fill:#0082a6;}.l{fill:#e6e6e6;}.m{fill:#ea2d4b;}.n{fill:#ffe3ba;}.o{fill:#fff;}.p{fill:#fff1db;}.q{fill:#f45157;}.r{fill:#ffc9b3;}.s{fill:#fbb03b;}.t{fill:#657493;}.u{fill:#661c1e;}.v{fill:#6b92af;}.w{fill:#ba313b;}.x{fill:#baab94;}.y{fill:#c0192d;}.z{fill:#c00a15;}.aa{fill:#c7363b;}.ab{fill:#d4c3a9;}.ac{fill:#daecfa;}.ad{fill:#1390ba;}.ae{fill:#101d2d;}.af{fill:#203850;}.ag{fill:#141c26;}.ah{fill:#154c8c;}.ai{fill:#0e7dab;}.aj{fill:#0e346c;}.ak{fill:#0d638f;}.al{fill:#182b3b;}.am{fill:#176c80;}.an{fill:#95a8bf;}.ao{fill:#961b20;}.ap{fill:#456185;}.aq{fill:#52aabf;}.ar{fill:#29abe2;}.as{fill:#2d4057;}.at{fill:#384347;}.au{fill:#4d4d4d;}.av{clip-path:url(#h);}.aw{clip-path:url(#g);}.ax{clip-path:url(#e);}.ay{clip-path:url(#f);}.az{clip-path:url(#d);}</style><clipPath id="d"><rect class="i" width="256" height="256"/></clipPath><clipPath id="e"><rect class="i" x="13.3" y="10.536" width="770.304" height="618.145"/></clipPath><clipPath id="f"><polyline class="i" points="272.283 138.196 154.429 215.794 51.007 164.048 29.846 84.967 144.656 18.688 272.283 138.196"/></clipPath><clipPath id="g"><path class="i" d="m189.761,179.733c-.55-1.845-.815-3.779-.815-5.34h0c0,.253.018.529.033.8.025,1.449.523,2.44,1.32,3.095l-.538,1.444"/></clipPath><clipPath id="h"><rect class="i" x="13.3" y="10.536" width="770.304" height="618.145"/></clipPath></defs><g id="c"><g class="az"><g><path class="ag" d="m313.88,245.51v140.849c0,3.87-2.717,8.574-6.069,10.508l-57.543,33.224-1.796,5.212-5.394-3.113c-1.097-.635-1.776-1.994-1.776-3.929v-150.258c0-3.87,2.715-8.574,6.067-10.508l60.442-34.898c1.638-.943,3.119-1.048,4.212-.462l5.395,3.106-3.538,10.268"/><path class="as" d="m252.545,434.753l60.443-34.896c3.35-1.934,6.066-6.639,6.066-10.508v-150.259c0-3.869-2.715-5.438-6.066-3.502l-60.443,34.896c-3.35,1.934-6.067,6.639-6.067,10.508v150.259c0,3.869,2.715,5.437,6.067,3.502"/><path class="o" d="m316.469,240.583v140.609c0,2.225-1.554,4.933-3.484,6.045l-60.442,34.886c-1.127.657-2.131.615-2.76.013-.458-.402-.724-1.098-.724-2.024v-140.611c0-2.225,1.568-4.918,3.484-6.031l60.442-34.898c.615-.362,1.206-.51,1.702-.456,1.072.067,1.782.964,1.782,2.466"/><path class="ar" d="m249.063,279.503v140.609c0,.924.259,1.626.715,2.03.508.052,1.094-.103,1.706-.456l60.434-34.905c1.277-.729,2.383-2.161,2.996-3.684.311-.781.495-1.589.495-2.344v-140.608c0-.924-.261-1.627-.715-2.031-.508-.052-1.095.091-1.706.456l-60.449,34.905c-1.914,1.106-3.475,3.8-3.475,6.028"/><path class="o" d="m252.091,284.124v127.772c0,.839.237,1.478.65,1.845.462.048.994-.094,1.55-.413l54.919-31.719c1.159-.663,2.165-1.964,2.721-3.347.285-.711.45-1.444.45-2.131v-127.772c0-.841-.237-1.478-.651-1.845-.461-.048-.994.082-1.55.414l-54.931,31.717c-1.739,1.006-3.158,3.455-3.158,5.478"/><path class="m" d="m169.174,86.359h21.628c1.565,5.64.772,11.834-1.183,17.7-.383,1.132-1.563,2.225-3.304,3.068-3.909,1.861-8.745,1.861-12.653,0-1.741-.843-2.921-1.936-3.297-3.068-1.964-5.867-2.756-12.061-1.191-17.7"/><path class="m" d="m172.318,81.456c-4.234,2.445-4.234,6.41,0,8.854,4.236,2.445,11.103,2.445,15.337,0,4.236-2.445,4.236-6.409,0-8.854-4.234-2.445-11.101-2.445-15.337,0"/><path class="y" d="m179.987,90.921c-2.295,0-4.592-.492-6.341-1.475-.672-.379-1.216-.8-1.626-1.252-1.754-1.894-1.209-4.283,1.626-5.872,1.75-.984,4.046-1.476,6.341-1.476s4.592.492,6.343,1.476c2.829,1.589,3.373,3.978,1.624,5.872-.41.452-.952.873-1.624,1.252-1.751.983-4.046,1.475-6.343,1.475"/><path d="m172.02,88.193c.41.452.954.873,1.626,1.252,3.501,1.967,9.183,1.967,12.684,0,.671-.379,1.215-.8,1.624-1.252-.41-.453-.954-.874-1.624-1.253-3.501-1.967-9.183-1.967-12.684,0-.672.379-1.216.8-1.626,1.253h0Z"/><polygon class="ag" points="182.092 86.775 180.727 72.414 183.595 65.445 182.16 57.11 187.968 53.967 193.736 49.868 196.618 42.08 192.751 49.459 187.694 53.147 182.092 56.017 180.043 50.961 183.186 46.999 180.589 38.664 184.005 31.832 180.043 38.459 182.16 46.862 179.184 50.62 182.092 64.625 176.627 62.644 173.962 57.179 174.713 53.147 167.54 49.8 173.893 53.558 172.937 57.452 175.738 63.191 181.135 66.266 178.54 72.619 176.694 86.283 174.372 87.718 178.403 87.718 182.078 89.222 181.613 87.923 184.756 87.376 182.092 86.775 182.092 86.775"/><path class="ag" d="m174.764,63.639c.271-.06.538-.138.812-.183l.763-.143-.08-.498-.782.148c-.28.047-.554.126-.833.187l.121.49h0Z"/><path class="j" d="m162.969,70.891s.399-.123,1.042-.322c.645-.19,1.52-.442,2.484-.674,1.933-.505,4.133-.838,5.686-1.566,1.557-.726,2.356-1.904,2.881-3.011.256-.539.422-1.068.526-1.442.079-.194.003-.328.004-.432l-.024-.159-.04-.156c-.042-.097-.021-.249-.177-.398-.255-.313-.644-.693-1.2-1.045-1.083-.682-2.931-1.169-5.176-.124-2.244,1.046-4.115,3.462-4.988,5.554-.462,1.04-.709,1.997-.851,2.676-.127.691-.167,1.098-.167,1.098h0Z"/><path class="ag" d="m168.415,54.19l.799.228c1.624.514,3.174,1.268,4.563,2.254l.292-.412c-1.434-1.017-3.031-1.794-4.703-2.323l-.821-.235-.13.488h0Z"/><path class="j" d="m154.814,55.875s.413.024,1.089.063c.323.007.725.06,1.151.104.421.033.89.107,1.369.184.955.138,1.973.373,2.925.557.962.208,1.864.366,2.695.389,1.641.02,2.851-.625,3.83-1.364.475-.349.87-.724,1.145-1.011.273-.288.411-.487.411-.487,0,0,.036-.966-.62-2.127-.638-1.105-2.089-2.455-4.645-2.499-1.262-.031-2.624.317-3.854.867-1.23.574-2.326,1.34-3.158,2.154-.421.4-.783.79-1.076,1.179-.298.38-.546.709-.723,1.022-.364.605-.539.97-.539.97h0Z"/><path class="ag" d="m190.396,57.398l-.648-.546c-1.323-1.038-2.796-1.891-4.367-2.497l-.182.471c1.522.588,2.951,1.415,4.237,2.424l.63.531.329-.383h0Z"/><path class="j" d="m196.518,69.813s.2-.353.487-.997c.155-.324.282-.715.425-1.176.153-.463.264-.983.355-1.555.192-1.146.204-2.483-.025-3.817-.235-1.326-.733-2.635-1.465-3.661-1.477-2.079-3.408-2.514-4.684-2.413-.66.055-1.186.226-1.547.38-.361.158-.556.312-.556.312,0,0-.085.22-.17.606-.083.389-.17.928-.194,1.52-.052,1.221.1,2.586,1.048,3.934.955,1.336,2.648,2.66,3.976,4.102.334.351.663.694.933,1.021.279.325.551.625.742.886.419.532.675.858.675.858h0Z"/><polygon class="ag" points="184.189 65.756 183.396 65.455 182.373 65.143 182.245 65.631 183.23 65.932 183.996 66.223 184.189 65.756 184.189 65.756"/><path class="k" d="m193.12,76.18s.133-.383.295-1.075c.072-.344.128-.76.182-1.247.022-.473.058-1.029.007-1.608-.063-1.176-.371-2.5-.934-3.759-.563-1.256-1.401-2.432-2.419-3.239-1.013-.815-2.057-1.207-2.972-1.311-.914-.119-1.709.057-2.316.29-.622.261-1.067.594-1.361.858-.171.122-.177.276-.232.365l-.064.148-.04.157c-.013.104-.098.228-.049.434.046.394.137.928.295,1.489.316,1.178.812,2.406,2.028,3.391,1.23.966,3.13,1.807,4.738,2.897.411.258.766.536,1.127.784.338.269.642.511.899.714.504.44.817.713.817.713h0Z"/><polygon class="ag" points="179.691 48.062 180.262 48.677 180.771 49.229 181.142 48.888 180.633 48.334 180.06 47.717 179.691 48.062 179.691 48.062"/><path class="k" d="m167.99,40.735s.303.286.79.747c.477.466,1.109,1.112,1.742,1.85.638.734,1.274,1.549,1.864,2.314.589.763,1.168,1.49,1.845,2.067,1.337,1.16,2.887,1.476,4.136,1.426.62-.021,1.156-.13,1.538-.235.21-.031.283-.167.374-.221l.124-.103.112-.115c.061-.085.203-.148.249-.355.136-.373.283-.902.334-1.532.092-1.25-.174-2.966-2-4.556-.914-.783-2.151-1.42-3.465-1.797-1.311-.379-2.656-.477-3.811-.404-1.156.067-2.127.306-2.791.517-.666.215-1.04.396-1.04.396h0Z"/><polygon class="ag" points="193.487 50.822 192.642 50.801 191.512 50.803 191.522 51.308 192.636 51.305 193.466 51.327 193.487 50.822 193.487 50.822"/><path class="k" d="m207.117,54.349s-.212-.355-.61-.924c-.401-.56-1.002-1.325-1.788-2.108-1.55-1.575-3.937-3.204-6.244-3.57-2.304-.381-3.894.49-4.797,1.378-.459.453-.763.916-.954,1.262-.122.172-.082.32-.106.421l-.016.161.012.161c.021.103-.021.248.092.426.173.356.443.828.815,1.31.76.978,1.894,1.963,3.724,2.267,1.832.29,4.158-.05,6.191-.299,2.036-.268,3.681-.485,3.681-.485h0Z"/><path class="ag" d="m183.794,46.032c-.212.186-.405.39-.61.585-.349.33-.668.689-1.001,1.034l.373.341c.328-.339.641-.691.984-1.016.2-.191.39-.391.598-.574l-.343-.37h0Z"/><path class="j" d="m196.19,39.442s-.387-.136-1.063-.315c-.671-.167-1.629-.357-2.748-.427-2.224-.162-5.149.26-7.116,1.616-1.976,1.34-2.526,3.101-2.535,4.381-.015.64.107,1.191.218,1.57.039.207.167.287.221.378l.101.126.125.103c.089.056.168.183.373.228.376.128.891.263,1.499.349,1.216.152,2.693.083,4.186-.927,1.483-1.023,2.926-2.812,4.274-4.33.678-.761,1.288-1.446,1.73-1.943.455-.5.735-.809.735-.809h0Z"/><path class="ag" d="m179.047,36.746c.152.233.297.469.425.715.286.488.52,1.002.76,1.514l.462-.201c-.246-.528-.489-1.056-.781-1.559-.133-.253-.283-.496-.438-.736l-.428.268h0Z"/><path class="j" d="m167.934,28.717s.288.3.751.787c.455.49,1.049,1.172,1.648,1.936,1.23,1.541,2.322,3.377,3.49,4.523,1.179,1.134,2.522,1.46,3.723,1.598.598.061,1.143.057,1.528.041.38-.038.562-.192.572-.173l.131-.095c.077-.073.219-.119.314-.308.221-.341.468-.835.613-1.476.303-1.258.13-3.225-1.711-5.002-.918-.868-2.131-1.566-3.419-1.977-1.288-.416-2.611-.59-3.769-.571-1.159.016-2.139.201-2.812.378-.681.194-1.06.341-1.06.341h0Z"/><polyline points="251.337 149.781 127.492 221.283 49.209 176.086 49.209 171.746 173.054 104.585 251.337 145.44 251.337 149.781"/><polyline class="an" points="251.337 145.44 127.492 216.942 49.209 171.746 173.054 100.244 251.337 145.44"/><polyline class="as" points="67.545 167.694 165.96 110.874 211.113 136.943 112.698 193.761 67.545 167.694"/><polygon class="au" points="69.888 167.695 77.491 163.305 83.294 166.653 75.689 171.044 69.888 167.695 69.888 167.695"/><polyline class="au" points="78.734 162.586 86.338 158.197 92.141 161.545 84.536 165.937 78.734 162.586"/><polyline class="au" points="87.581 157.479 95.186 153.089 100.987 156.438 93.382 160.829 87.581 157.479"/><polyline class="au" points="96.428 152.371 104.032 147.98 109.834 151.33 102.23 155.721 96.428 152.371"/><polyline class="au" points="105.275 147.263 112.88 142.873 118.682 146.222 111.077 150.612 105.275 147.263"/><polyline class="au" points="114.122 142.155 121.726 137.765 127.529 141.115 119.924 145.506 114.122 142.155"/><polyline class="au" points="122.969 137.047 130.573 132.657 136.375 136.007 128.771 140.397 122.969 137.047"/><polyline class="au" points="131.816 131.94 139.42 127.549 145.222 130.9 137.618 135.289 131.816 131.94"/><polygon class="au" points="140.663 126.832 148.267 122.442 154.069 125.791 146.464 130.182 140.663 126.832 140.663 126.832"/><polygon class="au" points="149.51 121.724 157.114 117.334 162.916 120.684 155.312 125.075 149.51 121.724 149.51 121.724"/><polygon class="au" points="158.356 116.617 165.962 112.226 171.762 115.576 164.159 119.967 158.356 116.617 158.356 116.617"/><polygon class="au" points="80.289 173.7 87.893 169.309 93.695 172.659 86.091 177.05 80.289 173.7 80.289 173.7"/><polyline class="au" points="89.136 168.592 96.741 164.202 102.542 167.551 94.939 171.943 89.136 168.592"/><polyline class="au" points="97.983 163.483 105.588 159.094 111.389 162.443 103.786 166.835 97.983 163.483"/><polyline class="au" points="106.83 158.376 114.435 153.986 120.237 157.336 112.632 161.728 106.83 158.376"/><polyline class="au" points="115.677 153.268 123.281 148.878 129.083 152.228 121.48 156.619 115.677 153.268"/><polyline class="au" points="124.524 148.162 132.129 143.77 137.93 147.12 130.326 151.511 124.524 148.162"/><polyline class="au" points="133.371 143.053 140.975 138.663 146.777 142.012 139.173 146.403 133.371 143.053"/><polyline class="au" points="142.218 137.945 149.823 133.555 155.624 136.905 148.02 141.296 142.218 137.945"/><polygon class="au" points="151.064 132.838 158.67 128.447 164.47 131.798 156.866 136.187 151.064 132.838 151.064 132.838"/><polygon class="au" points="159.911 127.73 167.516 123.34 173.318 126.69 165.713 131.079 159.911 127.73 159.911 127.73"/><polygon class="au" points="168.759 122.622 176.363 118.232 182.165 121.582 174.56 125.972 168.759 122.622 168.759 122.622"/><polygon class="au" points="86.941 177.54 94.545 173.15 100.347 176.5 92.743 180.89 86.941 177.54 86.941 177.54"/><polyline class="au" points="95.787 172.433 103.393 168.041 109.194 171.391 101.589 175.782 95.787 172.433"/><polyline class="au" points="104.635 167.324 112.239 162.934 118.04 166.284 110.437 170.674 104.635 167.324"/><polyline class="au" points="113.481 162.217 121.086 157.826 126.888 161.176 119.283 165.567 113.481 162.217"/><polyline class="au" points="122.328 157.108 129.933 152.718 135.735 156.069 128.13 160.458 122.328 157.108"/><polyline class="au" points="131.175 152.001 138.78 147.611 144.582 150.961 136.977 155.35 131.175 152.001"/><polyline class="au" points="140.023 146.894 147.627 142.503 153.429 145.853 145.824 150.243 140.023 146.894"/><polyline class="au" points="148.869 141.785 156.474 137.395 162.276 140.745 154.671 145.135 148.869 141.785"/><polygon class="au" points="157.716 136.678 165.321 132.288 171.123 135.637 163.518 140.027 157.716 136.678 157.716 136.678"/><polygon class="au" points="166.564 131.57 174.168 127.18 179.969 130.529 172.364 134.92 166.564 131.57 166.564 131.57"/><polygon class="au" points="93.592 181.381 101.197 176.989 106.999 180.339 99.394 184.73 93.592 181.381 93.592 181.381"/><polygon class="au" points="102.439 176.272 110.044 171.883 115.846 175.232 108.24 179.622 102.439 176.272 102.439 176.272"/><polygon class="au" points="111.286 171.165 118.891 166.774 124.692 170.124 117.088 174.515 111.286 171.165 111.286 171.165"/><polygon class="au" points="120.133 166.057 127.738 161.667 133.539 165.017 125.934 169.406 120.133 166.057 120.133 166.057"/><polygon class="au" points="128.98 160.948 136.584 156.559 142.386 159.908 134.782 164.299 128.98 160.948 128.98 160.948"/><polygon class="au" points="137.827 155.842 145.431 151.451 151.233 154.8 143.629 159.191 137.827 155.842 137.827 155.842"/><polygon class="au" points="146.674 150.734 154.278 146.344 160.08 149.693 152.475 154.084 146.674 150.734 146.674 150.734"/><polygon class="au" points="155.521 145.626 163.124 141.236 168.928 144.585 161.323 148.976 155.521 145.626 155.521 145.626"/><polygon class="au" points="164.367 140.518 171.972 136.128 177.774 139.476 170.169 143.868 164.367 140.518 164.367 140.518"/><polygon class="au" points="175.411 126.463 182.062 130.303 173.215 135.41 179.017 138.76 187.864 133.653 190.083 132.371 195.469 129.262 190.53 126.411 189.666 125.912 183.014 122.072 175.411 126.463 175.411 126.463"/><polygon class="au" points="111.407 178.777 109.091 180.113 100.244 185.221 106.046 188.57 114.892 183.463 117.209 182.124 122.498 179.072 116.695 175.724 111.407 178.777 111.407 178.777"/><polygon class="au" points="117.938 175.005 125.542 170.615 131.344 173.965 123.739 178.355 117.938 175.005 117.938 175.005"/><polygon class="au" points="126.784 169.898 134.389 165.507 140.191 168.856 132.586 173.247 126.784 169.898 126.784 169.898"/><polygon class="au" points="135.632 164.789 143.236 160.399 149.038 163.749 141.433 168.139 135.632 164.789 135.632 164.789"/><polygon class="au" points="144.479 159.682 152.083 155.291 157.884 158.641 150.28 163.032 144.479 159.682 144.479 159.682"/><polygon class="au" points="153.325 154.574 160.929 150.184 166.731 153.533 159.127 157.924 153.325 154.574 153.325 154.574"/><polygon class="au" points="162.172 149.466 169.776 145.076 175.579 148.426 167.974 152.816 162.172 149.466 162.172 149.466"/><polygon class="au" points="171.02 144.358 178.622 139.968 184.426 143.318 176.82 147.707 171.02 144.358 171.02 144.358"/><polygon class="au" points="187.47 134.86 186.169 135.612 179.867 139.251 185.668 142.6 191.971 138.961 193.272 138.21 202.12 133.103 196.317 129.752 187.47 134.86 187.47 134.86"/><polygon class="au" points="106.896 189.061 114.5 184.67 120.302 188.02 112.698 192.409 106.896 189.061 106.896 189.061"/><polygon class="au" points="115.742 183.953 123.346 179.563 129.149 182.911 121.544 187.302 115.742 183.953 115.742 183.953"/><polygon class="au" points="124.59 178.846 132.193 174.455 137.995 177.804 130.391 182.195 124.59 178.846 124.59 178.846"/><polygon class="au" points="172.625 151.112 168.823 153.306 167.582 154.023 159.977 158.415 158.734 159.131 151.13 163.522 149.888 164.239 142.283 168.63 133.436 173.738 139.238 177.087 148.084 171.98 155.689 167.589 156.932 166.871 164.536 162.48 165.779 161.764 173.382 157.374 174.625 156.656 178.428 154.46 182.229 152.266 176.428 148.915 172.625 151.112 172.625 151.112"/><polygon class="au" points="177.671 148.199 185.275 143.808 191.077 147.158 183.473 151.548 177.671 148.199 177.671 148.199"/><polygon class="au" points="186.518 143.091 194.122 138.701 199.923 142.05 192.32 146.441 186.518 143.091 186.518 143.091"/><polygon class="au" points="195.365 137.983 202.968 133.593 208.77 136.943 201.166 141.333 195.365 137.983 195.365 137.983"/><polygon class="an" points="69.888 166.828 77.491 162.437 83.294 165.788 75.689 170.178 69.888 166.828 69.888 166.828"/><polyline class="an" points="78.734 161.72 86.338 157.33 92.141 160.68 84.536 165.069 78.734 161.72"/><polyline class="an" points="87.581 156.612 95.186 152.221 100.987 155.572 93.382 159.962 87.581 156.612"/><polyline class="an" points="96.428 151.505 104.032 147.114 109.834 150.464 102.23 154.853 96.428 151.505"/><polyline class="an" points="105.275 146.397 112.88 142.006 118.682 145.355 111.077 149.746 105.275 146.397"/><polyline class="an" points="114.122 141.289 121.726 136.898 127.529 140.249 119.924 144.638 114.122 141.289"/><polyline class="an" points="122.969 136.181 130.573 131.79 136.375 135.141 128.771 139.53 122.969 136.181"/><polyline class="an" points="131.816 131.074 139.42 126.683 145.222 130.033 137.618 134.423 131.816 131.074"/><polygon class="an" points="140.663 125.966 148.267 121.575 154.069 124.925 146.464 129.316 140.663 125.966 140.663 125.966"/><polygon class="an" points="149.51 120.858 157.114 116.467 162.916 119.817 155.312 124.208 149.51 120.858 149.51 120.858"/><polygon class="an" points="158.356 115.75 165.962 111.359 171.762 114.709 164.159 119.1 158.356 115.75 158.356 115.75"/><polygon class="an" points="80.289 172.834 87.893 168.443 93.695 171.794 86.091 176.183 80.289 172.834 80.289 172.834"/><polyline class="an" points="89.136 167.726 96.741 163.336 102.542 166.685 94.939 171.075 89.136 167.726"/><polyline class="an" points="97.983 162.618 105.588 158.228 111.389 161.577 103.786 165.968 97.983 162.618"/><polyline class="an" points="106.83 157.51 114.435 153.119 120.237 156.47 112.632 160.861 106.83 157.51"/><polyline class="an" points="115.677 152.402 123.281 148.012 129.083 151.362 121.48 155.752 115.677 152.402"/><polyline class="an" points="124.524 147.295 132.129 142.904 137.93 146.254 130.326 150.644 124.524 147.295"/><polyline class="an" points="133.371 142.187 140.975 137.796 146.777 141.146 139.173 145.537 133.371 142.187"/><polyline class="an" points="142.218 137.079 149.823 132.689 155.624 136.039 148.02 140.429 142.218 137.079"/><polygon class="an" points="151.064 131.972 158.67 127.58 164.47 130.93 156.866 135.321 151.064 131.972 151.064 131.972"/><polygon class="an" points="159.911 126.864 167.516 122.472 173.318 125.823 165.713 130.213 159.911 126.864 159.911 126.864"/><polygon class="an" points="168.759 121.755 176.363 117.365 182.165 120.715 174.56 125.105 168.759 121.755 168.759 121.755"/><polygon class="an" points="86.941 176.673 94.545 172.284 100.347 175.633 92.743 180.023 86.941 176.673 86.941 176.673"/><polyline class="an" points="95.787 171.566 103.393 167.175 109.194 170.525 101.589 174.916 95.787 171.566"/><polyline class="an" points="104.635 166.458 112.239 162.068 118.04 165.418 110.437 169.807 104.635 166.458"/><polyline class="an" points="113.481 161.351 121.086 156.96 126.888 160.309 119.283 164.7 113.481 161.351"/><polyline class="an" points="122.328 156.243 129.933 151.852 135.735 155.201 128.13 159.594 122.328 156.243"/><polyline class="an" points="131.175 151.135 138.78 146.744 144.582 150.094 136.977 154.485 131.175 151.135"/><polyline class="an" points="140.023 146.027 147.627 141.636 153.429 144.987 145.824 149.377 140.023 146.027"/><polyline class="an" points="148.869 140.919 156.474 136.529 162.276 139.878 154.671 144.269 148.869 140.919"/><polygon class="an" points="157.716 135.811 165.321 131.421 171.123 134.77 163.518 139.161 157.716 135.811 157.716 135.811"/><polygon class="an" points="166.564 130.703 174.168 126.313 179.969 129.663 172.364 134.053 166.564 130.703 166.564 130.703"/><polygon class="an" points="93.592 180.513 101.197 176.123 106.999 179.473 99.394 183.864 93.592 180.513 93.592 180.513"/><polygon class="an" points="102.439 175.406 110.044 171.016 115.846 174.366 108.24 178.756 102.439 175.406 102.439 175.406"/><polygon class="an" points="111.286 170.299 118.891 165.907 124.692 169.258 117.088 173.648 111.286 170.299 111.286 170.299"/><polygon class="an" points="120.133 165.19 127.738 160.801 133.539 164.151 125.934 168.54 120.133 165.19 120.133 165.19"/><polygon class="an" points="128.98 160.083 136.584 155.693 142.386 159.042 134.782 163.433 128.98 160.083 128.98 160.083"/><polygon class="an" points="137.827 154.975 145.431 150.585 151.233 153.934 143.629 158.325 137.827 154.975 137.827 154.975"/><polygon class="an" points="146.674 149.867 154.278 145.477 160.08 148.827 152.475 153.217 146.674 149.867 146.674 149.867"/><polygon class="an" points="155.521 144.759 163.124 140.369 168.928 143.719 161.323 148.109 155.521 144.759 155.521 144.759"/><polygon class="an" points="164.367 139.652 171.972 135.262 177.774 138.61 170.169 143.001 164.367 139.652 164.367 139.652"/><polygon class="an" points="175.411 125.596 182.062 129.436 173.215 134.543 179.017 137.894 187.864 132.786 190.083 131.504 195.469 128.395 190.53 125.544 189.666 125.045 183.014 121.206 175.411 125.596 175.411 125.596"/><polygon class="an" points="111.407 177.91 109.091 179.247 100.244 184.354 106.046 187.703 114.892 182.595 117.209 181.259 122.498 178.205 116.695 174.856 111.407 177.91 111.407 177.91"/><polygon class="an" points="117.938 174.139 125.542 169.747 131.344 173.098 123.739 177.488 117.938 174.139 117.938 174.139"/><polygon class="an" points="126.784 169.031 134.389 164.64 140.191 167.99 132.586 172.381 126.784 169.031 126.784 169.031"/><polygon class="an" points="135.632 163.923 143.236 159.532 149.038 162.883 141.433 167.272 135.632 163.923 135.632 163.923"/><polygon class="an" points="144.479 158.816 152.083 154.425 157.884 157.774 150.28 162.165 144.479 158.816 144.479 158.816"/><polygon class="an" points="153.325 153.707 160.929 149.317 166.731 152.667 159.127 157.057 153.325 153.707 153.325 153.707"/><polygon class="an" points="162.172 148.6 169.776 144.209 175.579 147.558 167.974 151.949 162.172 148.6 162.172 148.6"/><polygon class="an" points="171.02 143.492 178.622 139.102 184.426 142.451 176.82 146.841 171.02 143.492 171.02 143.492"/><polygon class="an" points="187.47 133.994 186.169 134.745 179.867 138.384 185.668 141.734 191.971 138.095 193.272 137.344 202.12 132.235 196.317 128.886 187.47 133.994 187.47 133.994"/><polygon class="an" points="106.896 188.195 114.5 183.804 120.302 187.153 112.698 191.543 106.896 188.195 106.896 188.195"/><polygon class="an" points="115.742 183.087 123.346 178.697 129.149 182.046 121.544 186.436 115.742 183.087 115.742 183.087"/><polygon class="an" points="124.59 177.978 132.193 173.589 137.995 176.938 130.391 181.329 124.59 177.978 124.59 177.978"/><polygon class="an" points="172.625 150.245 168.823 152.44 167.582 153.157 159.977 157.548 158.734 158.265 151.13 162.656 149.888 163.373 142.283 167.762 133.436 172.871 139.238 176.221 148.084 171.114 155.689 166.722 156.932 166.005 164.536 161.615 165.779 160.898 173.382 156.508 174.625 155.79 178.428 153.595 182.229 151.4 176.428 148.049 172.625 150.245 172.625 150.245"/><polygon class="an" points="177.671 147.332 185.275 142.942 191.077 146.292 183.473 150.682 177.671 147.332 177.671 147.332"/><polygon class="an" points="186.518 142.224 194.122 137.834 199.923 141.184 192.32 145.574 186.518 142.224 186.518 142.224"/><g class="ax"><polygon class="an" points="195.365 137.116 202.968 132.726 208.77 136.077 201.166 140.466 195.365 137.116 195.365 137.116"/><polyline points="169.615 99.113 49.209 171.746 45.77 170.615 22.065 82.038 145.91 10.535 149.349 11.666 169.615 99.113"/></g><polyline class="as" points="173.054 100.244 49.209 171.746 25.504 83.168 149.349 11.666 173.054 100.244"/><polyline points="168.717 98.444 51.555 166.089 51.192 164.743 29.846 84.967 145.662 18.106 147.009 17.322 168.717 98.444"/><polyline class="ad" points="167.008 97.882 51.192 164.743 29.846 84.967 145.662 18.106 167.008 97.882"/><polyline class="as" points="195.333 169.755 170.916 183.853 155.591 175.005 180.008 160.908 195.333 169.755"/><g class="ay"><path class="af" d="m97.352,170.662l-.099-.057.406-.235c.028.022.057.043.086.066l-.393.227"/><path class="at" d="m97.253,170.606l-.748-.435.522-.301c.209.173.42.34.633.501l-.406.235"/><path class="v" d="m79.922,160.549l-5.646-3.276,52.514-30.319,1.733,1.006-40.613,23.602c-.004,1.327.162,2.708.475,4.101l-8.464,4.887"/><path class="af" d="m90.717,166.813l-3.84-2.228,4.027-2.325c.613,1.131,1.305,2.225,2.061,3.255l-2.248,1.298m-10.376-6.021l-.42-.243,8.464-4.887c.032.143.065.285.1.428l-.905.522.75.433-.75.433,1.6.924c.086.242.175.483.269.724l-3.112-1.796-5.997,3.462"/><path class="at" d="m86.877,164.585l-.748-.435,4.427-2.554c.113.222.229.444.349.665l-4.027,2.325"/><path class="at" d="m89.181,158.403l-1.6-.924.75-.433.496.286c.109.358.227.714.353,1.071"/><path class="v" d="m86.128,164.15l-5.787-3.358,5.997-3.462,3.112,1.796c.324.834.694,1.66,1.105,2.469l-4.427,2.554"/><path class="v" d="m88.828,157.332l-.496-.286-.75-.433.905-.522c.102.413.216.828.342,1.242"/><path class="v" d="m96.505,170.171l-5.787-3.358,2.248-1.298c1.209,1.648,2.583,3.134,4.062,4.355l-.522.301"/><path class="v" d="m98.585,171.379l-1.234-.717.393-.227c.369.277.744.536,1.124.779l-.284.164"/><polyline class="af" points="74.276 157.273 70.559 155.116 123.073 124.797 126.79 126.954 74.276 157.273"/><polyline points="70.559 155.116 69.216 154.337 121.733 124.019 123.073 124.797 70.559 155.116"/><polyline class="ai" points="69.216 154.337 44.583 140.043 29.846 84.967 42.17 77.852 121.733 124.019 69.216 154.337"/><polygon class="ab" points="-1.57 82.96 71.486 40.504 133.536 76.329 60.48 118.784 -1.57 82.96 -1.57 82.96"/><path class="ab" d="m140.277,76.986l-73.056,42.455c-1.724,1.002-4.11.862-6.741-.656l73.056-42.455c2.631,1.52,5.017,1.658,6.741.657h0Z"/><path class="x" d="m140.537,77.434l-73.055,42.455c1.769-1.028,2.868-3.211,2.877-6.309l73.056-42.455c-.009,3.098-1.108,5.28-2.877,6.309h0Z"/><polygon class="x" points="70.416 93.762 143.471 51.308 143.415 71.125 70.359 113.58 70.416 93.762 70.416 93.762"/><path class="o" d="m196.707,143.087l-24.172-13.955c-6.405-3.699-11.591-12.68-11.57-20.025l-73.055,42.455c-.021,7.346,5.164,16.326,11.57,20.025l23.92,13.809,8.694,5.021,73.055-42.456-8.443-4.874"/><polygon class="l" points="126.317 180.224 199.372 137.769 199.371 138.241 126.315 180.697 126.317 180.224 126.317 180.224"/><path class="x" d="m72.938,88.237l73.056-42.455c-1.551.901-2.515,2.813-2.523,5.526l-73.055,42.455c.007-2.712.971-4.625,2.522-5.525h0Z"/><path class="p" d="m209.26,148.361l-73.055,42.455c-1.052.611-2.508.526-4.111-.399l73.055-42.456c1.604.926,3.058,1.011,4.11.4"/><path class="ab" d="m128.01,176.509l73.057-42.455c-1.043.606-1.69,1.892-1.694,3.715l-73.055,42.455c.005-1.823.651-3.109,1.693-3.715h0Z"/><polygon class="p" points="88.045 103.941 161.101 61.486 160.966 109.106 87.911 151.561 88.045 103.941 88.045 103.941"/><polygon class="p" points="139.554 73.051 93.87 99.427 93.87 104.845 139.554 78.47 139.554 73.051 139.554 73.051"/><polygon class="p" points="136.765 84.87 124.569 91.91 124.569 92.834 136.765 85.793 136.765 84.87 136.765 84.87"/><polygon class="p" points="157.739 72.76 138.438 83.904 138.438 84.826 157.739 73.683 157.739 72.76 157.739 72.76"/><polygon class="p" points="132.748 89.918 124.569 94.64 124.569 95.563 132.748 90.841 132.748 89.918 132.748 89.918"/><polygon class="p" points="147.029 81.673 134.087 89.145 134.087 90.068 147.029 82.596 147.029 81.673 147.029 81.673"/><polygon class="p" points="157.851 75.425 148.256 80.964 148.256 81.887 157.851 76.348 157.851 75.425 157.851 75.425"/><polygon class="p" points="157.851 78.154 140.781 88.009 140.781 88.932 157.851 79.077 157.851 78.154 157.851 78.154"/><polygon class="p" points="139.554 88.718 124.569 97.369 124.569 98.292 139.554 89.641 139.554 88.718 139.554 88.718"/><polygon class="p" points="147.586 86.809 124.569 100.099 124.569 101.021 147.586 87.733 147.586 86.809 147.586 86.809"/><polygon class="p" points="133.752 97.526 124.569 102.828 124.569 103.751 133.752 98.449 133.752 97.526 133.752 97.526"/><polygon class="p" points="157.851 83.613 141.45 93.081 141.45 94.005 157.851 84.536 157.851 83.613 157.851 83.613"/><polygon class="p" points="140.446 93.661 134.98 96.817 134.98 97.741 140.446 94.584 140.446 93.661 140.446 93.661"/><polygon class="p" points="149.149 91.366 124.569 105.557 124.569 106.48 149.149 92.289 149.149 91.366 149.149 91.366"/><polygon class="p" points="153.388 91.648 136.876 101.181 136.876 102.104 153.388 92.57 153.388 91.648 153.388 91.648"/><polygon class="p" points="134.868 102.341 124.569 108.287 124.569 109.209 134.868 103.263 134.868 102.341 134.868 102.341"/><polygon class="p" points="145.914 98.693 124.569 111.015 124.569 111.939 145.914 99.616 145.914 98.693 145.914 98.693"/><polygon class="p" points="105.486 127.619 94.192 134.14 94.192 135.062 105.486 128.541 105.486 127.619 105.486 127.619"/><polygon class="p" points="118.435 120.143 107.706 126.337 107.706 127.26 118.435 121.066 118.435 120.143 118.435 120.143"/><polygon class="p" points="143.469 105.689 120.654 118.861 120.654 119.784 143.469 106.612 143.469 105.689 143.469 105.689"/><polygon class="p" points="145.195 104.692 145.195 105.615 157.739 98.373 157.739 97.45 145.195 104.692 145.195 104.692"/><polygon class="p" points="112.762 126.147 112.762 127.07 132.247 115.82 132.247 114.898 112.762 126.147 112.762 126.147"/><polygon class="p" points="110.913 127.215 94.192 136.868 94.192 137.792 110.913 128.138 110.913 127.215 110.913 127.215"/><polygon class="p" points="134.22 113.758 134.22 114.682 157.739 101.102 157.739 100.179 134.22 113.758 134.22 113.758"/><polygon class="p" points="102.896 134.572 94.192 139.598 94.192 140.521 102.896 135.495 102.896 134.572 102.896 134.572"/><polygon class="p" points="123.121 122.896 104.993 133.362 104.993 134.285 123.121 123.819 123.121 122.896 123.121 122.896"/><polygon class="p" points="143.099 111.361 143.099 112.259 141.249 113.326 141.249 112.429 125.094 121.756 125.094 122.68 157.739 103.831 157.739 102.909 143.099 111.361 143.099 111.361"/><polygon class="p" points="133.727 119.502 133.727 120.424 157.739 106.561 157.739 105.638 133.727 119.502 133.727 119.502"/><polygon class="p" points="131.63 120.712 94.192 142.328 94.192 143.25 131.63 121.635 131.63 120.712 131.63 120.712"/><polygon class="p" points="111.652 134.976 94.192 145.056 94.192 145.979 111.652 135.898 111.652 134.976 111.652 134.976"/><polygon class="p" points="133.48 122.373 113.748 133.765 113.748 134.688 133.48 123.296 133.48 122.373 133.48 122.373"/><polygon class="p" points="136.07 120.879 136.07 121.801 157.739 109.29 157.739 108.367 136.07 120.879 136.07 120.879"/><polygon class="p" points="103.267 142.547 94.192 147.786 94.192 148.709 103.267 143.469 103.267 142.547 103.267 142.547"/><polygon class="p" points="105.117 141.478 105.117 142.401 121.271 133.074 121.271 132.151 105.117 141.478 105.117 141.478"/><polygon class="p" points="141.126 120.689 141.126 121.611 157.739 112.02 157.739 111.096 141.126 120.689 141.126 120.689"/><polygon class="p" points="138.906 121.97 122.875 131.226 122.875 132.148 138.906 122.893 138.906 121.97 138.906 121.97"/><polygon class="p" points="109.433 141.716 94.192 150.515 94.192 151.438 109.433 142.639 109.433 141.716 109.433 141.716"/><polygon class="p" points="111.529 140.505 111.529 141.428 122.504 135.091 122.504 134.169 111.529 140.505 111.529 140.505"/><polygon class="p" points="124.847 132.816 124.847 133.738 157.739 114.748 157.739 113.826 124.847 132.816 124.847 132.816"/><polygon class="p" points="114.242 141.668 94.192 153.244 94.192 154.167 114.242 142.591 114.242 141.668 114.242 141.668"/><polygon class="p" points="116.462 140.387 116.462 141.309 139.892 127.782 139.892 126.859 116.462 140.387 116.462 140.387"/><polygon class="p" points="120.889 114.063 94.523 129.286 94.523 109.258 120.889 94.035 120.889 114.063 120.889 114.063"/><polygon class="p" points="94.523 121.397 102.565 110.154 112.968 118.637 94.523 129.286 94.523 121.397 94.523 121.397"/><polygon class="p" points="108.543 115.028 115.631 105.609 120.889 106.819 120.889 114.063 112.968 118.637 108.543 115.028 108.543 115.028"/><polygon class="p" points="111.595 158.086 100.298 164.609 101.22 165.141 112.518 158.619 111.595 158.086 111.595 158.086"/><polygon class="p" points="124.547 150.607 113.815 156.804 114.739 157.336 125.47 151.141 124.547 150.607 124.547 150.607"/><polygon class="p" points="149.588 136.15 126.768 149.326 127.69 149.858 150.511 136.684 149.588 136.15 149.588 136.15"/><polygon class="p" points="151.315 135.153 152.238 135.687 164.786 128.442 163.862 127.909 151.315 135.153 151.315 135.153"/><polygon class="p" points="121.603 155.46 122.526 155.993 142.016 144.741 141.092 144.207 121.603 155.46 121.603 155.46"/><polygon class="p" points="119.753 156.528 103.027 166.184 103.951 166.718 120.676 157.061 119.753 156.528 119.753 156.528"/><polygon class="p" points="143.067 143.068 143.99 143.601 167.515 130.018 166.592 129.485 143.067 143.068 143.067 143.068"/><polygon class="p" points="114.464 162.734 105.758 167.761 106.681 168.293 115.388 163.266 114.464 162.734 114.464 162.734"/><polygon class="p" points="134.695 151.053 116.562 161.522 117.485 162.056 135.618 151.587 134.695 151.053 134.695 151.053"/><polygon class="p" points="154.678 139.516 155.576 140.035 153.725 141.103 152.827 140.585 136.668 149.914 137.592 150.447 170.245 131.595 169.323 131.061 154.678 139.516 154.678 139.516"/><polygon class="p" points="148.033 146.505 148.956 147.038 172.975 133.171 172.053 132.638 148.033 146.505 148.033 146.505"/><polygon class="p" points="145.936 147.716 108.488 169.337 109.411 169.87 146.859 148.249 145.936 147.716 145.936 147.716"/><polygon class="p" points="128.683 160.829 111.218 170.913 112.141 171.446 129.606 161.363 128.683 160.829 128.683 160.829"/><polygon class="p" points="150.516 148.224 130.78 159.619 131.703 160.151 151.44 148.757 150.516 148.224 150.516 148.224"/><polygon class="p" points="153.107 146.728 154.03 147.261 175.706 134.746 174.783 134.214 153.107 146.728 153.107 146.728"/><polygon class="p" points="123.025 167.248 113.948 172.49 114.871 173.022 123.948 167.782 123.025 167.248 123.025 167.248"/><polygon class="p" points="124.875 166.179 125.798 166.713 141.958 157.384 141.034 156.85 124.875 166.179 124.875 166.179"/><polygon class="p" points="160.895 145.385 161.817 145.917 178.436 136.323 177.512 135.79 160.895 145.385 160.895 145.385"/><polygon class="p" points="158.674 146.666 142.638 155.925 143.562 156.458 159.597 147.2 158.674 146.666 158.674 146.666"/><polygon class="p" points="131.923 165.264 116.677 174.065 117.601 174.598 132.845 165.796 131.923 165.264 131.923 165.264"/><polygon class="p" points="134.019 164.053 134.943 164.586 145.921 158.247 144.998 157.715 134.019 164.053 134.019 164.053"/><polygon class="p" points="147.342 156.361 148.265 156.895 181.165 137.899 180.242 137.366 147.342 156.361 147.342 156.361"/><polygon class="p" points="139.463 164.062 119.408 175.642 120.331 176.174 140.387 164.595 139.463 164.062 139.463 164.062"/><polygon class="p" points="141.683 162.78 142.607 163.314 166.044 149.782 165.121 149.249 141.683 162.78 141.683 162.78"/><polygon class="o" points="88.045 103.941 161.101 61.486 160.966 109.106 87.911 151.561 88.045 103.941 88.045 103.941"/><polygon class="m" points="139.554 73.051 93.87 99.427 93.87 104.845 139.554 78.47 139.554 73.051 139.554 73.051"/><polygon class="ag" points="136.765 84.87 124.569 91.91 124.569 92.834 136.765 85.793 136.765 84.87 136.765 84.87"/><polygon class="ag" points="157.739 72.76 138.438 83.904 138.438 84.826 157.739 73.683 157.739 72.76 157.739 72.76"/><polygon class="ag" points="132.748 89.918 124.569 94.64 124.569 95.563 132.748 90.841 132.748 89.918 132.748 89.918"/><polygon class="ag" points="147.029 81.673 134.087 89.145 134.087 90.068 147.029 82.596 147.029 81.673 147.029 81.673"/><polygon class="ag" points="157.851 75.425 148.256 80.964 148.256 81.887 157.851 76.348 157.851 75.425 157.851 75.425"/><polygon class="ag" points="157.851 78.154 140.781 88.009 140.781 88.932 157.851 79.077 157.851 78.154 157.851 78.154"/><polygon class="ag" points="139.554 88.718 124.569 97.369 124.569 98.292 139.554 89.641 139.554 88.718 139.554 88.718"/><polygon class="ag" points="147.586 86.809 124.569 100.099 124.569 101.021 147.586 87.733 147.586 86.809 147.586 86.809"/><polygon class="ag" points="133.752 97.526 124.569 102.828 124.569 103.751 133.752 98.449 133.752 97.526 133.752 97.526"/><polygon class="ag" points="157.851 83.613 141.45 93.081 141.45 94.005 157.851 84.536 157.851 83.613 157.851 83.613"/><polygon class="ag" points="140.446 93.661 134.98 96.817 134.98 97.741 140.446 94.584 140.446 93.661 140.446 93.661"/><polygon class="ag" points="149.149 91.366 124.569 105.557 124.569 106.48 149.149 92.289 149.149 91.366 149.149 91.366"/><polygon class="ag" points="153.388 91.648 136.876 101.181 136.876 102.104 153.388 92.57 153.388 91.648 153.388 91.648"/><polygon class="ag" points="134.868 102.341 124.569 108.287 124.569 109.209 134.868 103.263 134.868 102.341 134.868 102.341"/><polygon class="ag" points="145.914 98.693 124.569 111.015 124.569 111.939 145.914 99.616 145.914 98.693 145.914 98.693"/><polygon class="ag" points="105.486 127.619 94.192 134.14 94.192 135.062 105.486 128.541 105.486 127.619 105.486 127.619"/><polygon class="ag" points="118.435 120.143 107.706 126.337 107.706 127.26 118.435 121.066 118.435 120.143 118.435 120.143"/><polygon class="ag" points="143.469 105.689 120.654 118.861 120.654 119.784 143.469 106.612 143.469 105.689 143.469 105.689"/><polygon class="ag" points="145.195 104.692 145.195 105.615 157.739 98.373 157.739 97.45 145.195 104.692 145.195 104.692"/><polygon class="ag" points="112.762 126.147 112.762 127.07 132.247 115.82 132.247 114.898 112.762 126.147 112.762 126.147"/><polygon class="ag" points="110.913 127.215 94.192 136.868 94.192 137.792 110.913 128.138 110.913 127.215 110.913 127.215"/><polygon class="ag" points="134.22 113.758 134.22 114.682 157.739 101.102 157.739 100.179 134.22 113.758 134.22 113.758"/><polygon class="ag" points="102.896 134.572 94.192 139.598 94.192 140.521 102.896 135.495 102.896 134.572 102.896 134.572"/><polygon class="ag" points="123.121 122.896 104.993 133.362 104.993 134.285 123.121 123.819 123.121 122.896 123.121 122.896"/><polygon class="ag" points="143.099 111.361 143.099 112.259 141.249 113.326 141.249 112.429 125.094 121.756 125.094 122.68 157.739 103.831 157.739 102.909 143.099 111.361 143.099 111.361"/><polygon class="ag" points="133.727 119.502 133.727 120.424 157.739 106.561 157.739 105.638 133.727 119.502 133.727 119.502"/><polygon class="ag" points="131.63 120.712 94.192 142.328 94.192 143.25 131.63 121.635 131.63 120.712 131.63 120.712"/><polygon class="ag" points="111.652 134.976 94.192 145.056 94.192 145.979 111.652 135.898 111.652 134.976 111.652 134.976"/><polygon class="ag" points="133.48 122.373 113.748 133.765 113.748 134.688 133.48 123.296 133.48 122.373 133.48 122.373"/><polygon class="ag" points="136.07 120.879 136.07 121.801 157.739 109.29 157.739 108.367 136.07 120.879 136.07 120.879"/><polygon class="ag" points="103.267 142.547 94.192 147.786 94.192 148.709 103.267 143.469 103.267 142.547 103.267 142.547"/><polygon class="ag" points="105.117 141.478 105.117 142.401 121.271 133.074 121.271 132.151 105.117 141.478 105.117 141.478"/><polygon class="ag" points="141.126 120.689 141.126 121.611 157.739 112.02 157.739 111.096 141.126 120.689 141.126 120.689"/><polygon class="ag" points="138.906 121.97 122.875 131.226 122.875 132.148 138.906 122.893 138.906 121.97 138.906 121.97"/><polygon class="ag" points="109.433 141.716 94.192 150.515 94.192 151.438 109.433 142.639 109.433 141.716 109.433 141.716"/><polygon class="ag" points="111.529 140.505 111.529 141.428 122.504 135.091 122.504 134.169 111.529 140.505 111.529 140.505"/><polygon class="ag" points="124.847 132.816 124.847 133.738 157.739 114.748 157.739 113.826 124.847 132.816 124.847 132.816"/><polygon class="ag" points="114.242 141.668 94.192 153.244 94.192 154.167 114.242 142.591 114.242 141.668 114.242 141.668"/><polygon class="ag" points="116.462 140.387 116.462 141.309 139.892 127.782 139.892 126.859 116.462 140.387 116.462 140.387"/><polygon class="ac" points="120.889 114.063 94.523 129.286 94.523 109.258 120.889 94.035 120.889 114.063 120.889 114.063"/><polygon class="an" points="94.523 121.397 102.565 110.154 112.968 118.637 94.523 129.286 94.523 121.397 94.523 121.397"/><polygon class="ap" points="108.543 115.028 115.631 105.609 120.889 106.819 120.889 114.063 112.968 118.637 108.543 115.028 108.543 115.028"/><polygon class="ag" points="111.595 158.086 100.298 164.609 101.22 165.141 112.518 158.619 111.595 158.086 111.595 158.086"/><polygon class="ag" points="124.547 150.607 113.815 156.804 114.739 157.336 125.47 151.141 124.547 150.607 124.547 150.607"/><polygon class="ag" points="149.588 136.15 126.768 149.326 127.69 149.858 150.511 136.684 149.588 136.15 149.588 136.15"/><polygon class="ag" points="151.315 135.153 152.238 135.687 164.786 128.442 163.862 127.909 151.315 135.153 151.315 135.153"/><polygon class="ag" points="121.603 155.46 122.526 155.993 142.016 144.741 141.092 144.207 121.603 155.46 121.603 155.46"/><polygon class="ag" points="119.753 156.528 103.027 166.184 103.951 166.718 120.676 157.061 119.753 156.528 119.753 156.528"/><polygon class="ag" points="143.067 143.068 143.99 143.601 167.515 130.018 166.592 129.485 143.067 143.068 143.067 143.068"/><polygon class="ag" points="114.464 162.734 105.758 167.761 106.681 168.293 115.388 163.266 114.464 162.734 114.464 162.734"/><polygon class="ag" points="134.695 151.053 116.562 161.522 117.485 162.056 135.618 151.587 134.695 151.053 134.695 151.053"/><polygon class="ag" points="154.678 139.516 155.576 140.035 153.725 141.103 152.827 140.585 136.668 149.914 137.592 150.447 170.245 131.595 169.323 131.061 154.678 139.516 154.678 139.516"/><polygon class="ag" points="148.033 146.505 148.956 147.038 172.975 133.171 172.053 132.638 148.033 146.505 148.033 146.505"/><polygon class="ag" points="145.936 147.716 108.488 169.337 109.411 169.87 146.859 148.249 145.936 147.716 145.936 147.716"/><polygon class="ag" points="128.683 160.829 111.218 170.913 112.141 171.446 129.606 161.363 128.683 160.829 128.683 160.829"/><polygon class="ag" points="150.516 148.224 130.78 159.619 131.703 160.151 151.44 148.757 150.516 148.224 150.516 148.224"/><polygon class="ag" points="153.107 146.728 154.03 147.261 175.706 134.746 174.783 134.214 153.107 146.728 153.107 146.728"/><polygon class="ag" points="123.025 167.248 113.948 172.49 114.871 173.022 123.948 167.782 123.025 167.248 123.025 167.248"/><polygon class="ag" points="124.875 166.179 125.798 166.713 141.958 157.384 141.034 156.85 124.875 166.179 124.875 166.179"/><polygon class="ag" points="160.895 145.385 161.817 145.917 178.436 136.323 177.512 135.79 160.895 145.385 160.895 145.385"/><polygon class="ag" points="158.674 146.666 142.638 155.925 143.562 156.458 159.597 147.2 158.674 146.666 158.674 146.666"/><polygon class="ag" points="131.923 165.264 116.677 174.065 117.601 174.598 132.845 165.796 131.923 165.264 131.923 165.264"/><polygon class="ag" points="134.019 164.053 134.943 164.586 145.921 158.247 144.998 157.715 134.019 164.053 134.019 164.053"/><polygon class="ag" points="147.342 156.361 148.265 156.895 181.165 137.899 180.242 137.366 147.342 156.361 147.342 156.361"/><polygon class="ag" points="139.463 164.062 119.408 175.642 120.331 176.174 140.387 164.595 139.463 164.062 139.463 164.062"/><polygon class="ag" points="141.683 162.78 142.607 163.314 166.044 149.782 165.121 149.249 141.683 162.78 141.683 162.78"/><path class="p" d="m72.673,87.781l73.055-42.455c1.638-.952,3.904-.82,6.402.622l-73.055,42.455c-2.497-1.442-4.764-1.574-6.402-.622h0Z"/><path class="o" d="m72.673,87.781l73.055-42.455c1.638-.952,3.904-.82,6.402.622l-73.055,42.455c-2.497-1.442-4.764-1.574-6.402-.622h0Z"/><path class="o" d="m79.074,88.403l73.055-42.455c4.964,2.866,8.988,9.836,8.972,15.539l-73.056,42.455c.016-5.704-4.008-12.673-8.971-15.539h0Z"/><path class="o" d="m79.074,88.403l73.055-42.455c4.964,2.866,8.988,9.836,8.972,15.539l-73.056,42.455c.016-5.704-4.008-12.673-8.971-15.539h0Z"/><path class="o" d="m79.074,88.403c4.964,2.866,8.987,9.835,8.971,15.539l-.135,47.62c-.021,7.346,5.164,16.326,11.57,20.025l32.614,18.83c3.189,1.841,5.792.358,5.803-3.322.011-3.848-2.575-8.343-5.765-10.185-3.203-1.849-5.806-.35-5.816,3.314v.472s-.372-.215-.372-.215v-.471c.012-3.909,2.787-5.475,6.189-3.511,3.388,1.955,6.145,6.717,6.134,10.626-.012,4.091-2.787,5.672-6.175,3.715l-32.613-18.829c-6.605-3.814-11.948-13.083-11.926-20.657l.135-47.621c.015-5.46-3.85-12.155-8.615-14.906-4.751-2.744-8.642-.526-8.657,4.934l-.057,19.817c-.017,6.236-4.453,8.764-9.879,5.63L-1.571,83.385v-.426s62.052,35.824,62.052,35.824c5.229,3.018,9.491.59,9.508-5.418l.056-19.817c.016-5.703,4.067-8.011,9.03-5.146h0Z"/><path class="ab" d="m127.74,176.069l73.055-42.455c1.122-.653,2.678-.559,4.393.43,3.389,1.957,6.146,6.717,6.136,10.626-.006,2.058-.711,3.481-1.842,4.138l-73.056,42.455c1.131-.657,1.836-2.08,1.842-4.137.011-3.909-2.746-8.671-6.135-10.626-1.715-.991-3.271-1.083-4.394-.431"/><path class="ab" d="m127.74,176.069l73.055-42.455c1.122-.653,2.678-.559,4.393.43,3.389,1.957,6.146,6.717,6.136,10.626-.006,2.058-.711,3.481-1.842,4.138l-73.056,42.455c1.131-.657,1.836-2.08,1.842-4.137.011-3.909-2.746-8.671-6.135-10.626-1.715-.991-3.271-1.083-4.394-.431"/></g><path class="n" d="m144.441,105.743l9.047,10.104-6.698,6.803-3.633-3.987-1.267-11.677c.44-.452.947-.829,1.456-1.084.304,0,.693-.084,1.095-.159h0Z"/><path d="m144.441,105.743c-.402.075-.791.159-1.095.159-.509.255-1.017.632-1.456,1.084l-.505-4.657,3.056,3.414h0Z"/><polygon class="r" points="163.258 136.752 168.112 138.771 171.537 138.412 171.475 142.572 167.329 142.672 164.173 143.605 161.278 136.593 163.258 136.752 163.258 136.752"/><path d="m190.548,242.277s-.288,2.388,4.647,2.997c4.933.61,7.428,0,7.428,0,0,0,3.771,1.207,5.876.271,2.106-.937,1.553-1.602,1.553-1.602-.149-2.528-.86-5.022-2.182-7.483l-5.714-2.107-.821,3.869-4.274,1.55s-5.884.355-6.513,2.505h0Z"/><path d="m197.974,213.731v10.759c-.31-.009-.593-.027-.851-.063-2.829-.328-3.078-1.747-5.03-2.155-2.137-.444-1.835.054-6.936-.613-5.1-.665-6.04-3.61-3.823-4.824,2.218-1.216,6.751-.888,6.751-.888l2.429-.656,1.686-.453,1.286-2.918,1.578.639,2.909,1.171"/><path class="al" d="m202.472,186.101l-.316,6.847,1.241,24.322c-3.374.186-4.42.267-5.423.177-1.1-.088-2.137-.373-3.121-.833-.276-.124-.532-.265-.799-.417-.648-.382-1.259-.833-1.854-1.358-2.288-8.186-2.164-16.736-4.045-28.675-.151-.967-.063-1.969.283-2.882l1.322-3.548,4.657-12.498,6.103,2.103,5.197,1.791,2.155.745-5.401,14.227"/><path class="ad" d="m194.566,175.516s-5.47,17.592-2.513,31.488c0,0,5.323,20.254,7.449,28.813.568,2.285,2.605,3.884,4.958,3.909.905.01,1.863-.037,2.774-.192,1.772-.303,3.018-1.906,2.964-3.703-.165-5.51-1.025-19.015-5.383-29.799l4.386-21.349c3.513-3.465,5.323-8.136,2.662-15.966l-17.297,6.8"/><path class="ah" d="m167.61,138.595c-.075,1.675.167,3.23,1.329,4.436,0,0,10.511,1.257,20.267,0l11.929-10.127-5.73-5.172-8.747,7.852-19.048,3.01h0Z"/><path class="ah" d="m202.156,178.129c4.1-.684,10.935-3.624,11.681-10-.253-.666-.514-1.35-.793-2.073-2.368-6.155-3.991-18.113-2.812-23.842,1.189-5.721-3.839-19.39-13.446-15.362-4.054,2.412-6.37,5.26-7.841,8.311-1.411,7.184-1.34,14.334,0,21.429v17.802c0,.253.018.529.033.8.112,6.34,9.249,3.917,13.177,2.936"/><path class="al" d="m188.058,149.508c.136-4.647.514-9.164,1.997-13.093l6.747-8.529-8.315,6.466c-.662,5.894-1.262,12.319-.429,15.156h0Z"/><path class="r" d="m191.979,134.069l-2.273-6.336,8.259-3.753,1.878,3.753c.672,2.4-6.921,7.929-7.864,6.336h0Z"/><path class="r" d="m191.624,129.736l-3.626-.834c-.811-.187-1.481-.747-1.8-1.517-.836-2.016-1.55-6.37-1.216-9.536.511-4.866,5.841-6.185,9.048-5.326,3.207.859,6.185,3.264,6.414,7.445.23,4.181-2.806,7.56-2.806,7.56l-6.013,2.208h0Z"/><path d="m184.897,119.434s.854,1.551,2.762,2.677c.37.218.623.591.732,1.007l.389,1.509,1.528,1.336.265.892c.249.841.975,1.458,1.848,1.534,1.332.116,3.534-.109,6.551-1.8,0,0,3.852-5.207.878-10.323-2.975-5.116-8.626-4.574-10.516-3.986-1.89.588-6.625,3.337-4.437,7.156h0Z"/><path class="r" d="m190.402,123.429c.113.2.165.429.203.656.109.674.098,1.366-.031,2.036-.051.263-.124.53-.288.741-.165.211-.441.354-.702.292-.353-.084-.526-.478-.624-.827-.186-.664-.511-1.709-.283-2.401.238-.723,1.23-1.375,1.726-.497h0Z"/><g class="aw"><rect class="t" x="188.946" y="174.393" width="1.353" height="5.34"/></g><path d="m194.055,216.196h0c-.835-.204-2.191-.541-3.54-.905l1.686-.453h0c.595.525,1.206.976,1.854,1.358h0"/><path class="ae" d="m194.487,216.307c-.116-.03-.262-.066-.432-.11h0c-.648-.382-1.259-.833-1.854-1.358h0c-2.283-8.166-2.165-16.695-4.031-28.587-.004-.028-.009-.058-.013-.088-.048-.302-.072-.608-.07-.914,0-.671.116-1.341.353-1.969l1.322-3.548h0l.538-1.444c.823.674,1.964.993,3.24,1.089-1.423,5.954-3.593,17.727-1.486,27.626,0,0,1.066,4.055,2.434,9.303"/><path class="ak" d="m194.8,216.383c-.042-.01-.149-.036-.313-.076-1.368-5.247-2.434-9.303-2.434-9.303-2.107-9.899.063-21.672,1.486-27.626.294.021.595.031.9.031,2.349,0,4.984-.602,6.878-1.072l.836,7.498-.186.355-5.809,10.759-1.092,15.611-.265,3.823"/><path class="aj" d="m194.439,179.409c-.306,0-.607-.01-.9-.031-1.276-.097-2.417-.416-3.24-1.089-.797-.656-1.295-1.647-1.32-3.095-.015-.271-.033-.547-.033-.8v-3.405l12.186-20.56-.611,18.911-.045,1.446.256,2.314.584,5.24c-1.894.469-4.529,1.072-6.878,1.072"/><polygon class="ao" points="192.038 201.679 153.488 115.847 150.957 113.618 189.506 199.45 192.038 201.679 192.038 201.679"/><polygon class="q" points="189.506 199.45 150.957 113.618 145.792 115.027 184.342 200.858 189.506 199.45 189.506 199.45"/><polygon class="z" points="184.342 200.858 145.792 115.027 143.157 118.664 181.707 204.494 184.342 200.858 184.342 200.858"/><polygon class="n" points="192.038 201.679 189.506 199.45 184.342 200.858 181.707 204.494 184.236 206.724 189.403 205.315 192.038 201.679 192.038 201.679"/><path class="r" d="m181.779,176.311c-.167,0-3.216,3.714-3.216,3.714l-3.159,2.44-2.602,3.057s-.611,2.447.641,3.386c.428.648.65,1.599,1.322,1.438l.162.8c.222.776,1.404,1.934,1.331,1.213l-.244-1.246,3.395-2.572c.431-.608.741-1.294.911-2.018l.407-1.729,1.054-2.013,1.441-4.417-1.441-2.052h0Z"/><path class="ah" d="m191.008,148.316l-1.733,14.023c-2.841,5.602-7.283,11.534-10.713,17.686l3.771,3.23c4.872-3.562,10.011-9.698,15.189-16.201l3.613-16.63c2.706-10.339-8.824-9.646-10.127-2.107h0Z"/><path class="r" d="m161.424,135.701l1.414.28c.718.611,1.455.951,2.467,1.621l-.401.89.253.535-.705,1.229-1.233-2.11c-.881-.821-.787-1.062-1.656-1.318-1.297-.384-1.211-1.944-.139-1.127h0Z"/><path class="u" d="m51.318,218.852l23.797-13.739-5.781-3.353-18.016,11.115c-.76,2.708-.76,4.7,0,5.978h0Z"/><path class="o" d="m50.617,218.237l23.35-13.481v-5.979l-23.797,13.741c-.76,2.706-.314,4.441.447,5.72h0Z"/><path class="u" d="m17.261,199.19l34.057,19.662c-.751-1.699-.751-3.692,0-5.978l-34.057-19.662c-.689,2.449-.688,4.443,0,5.978h0Z"/><polygon class="aq" points="17.261 193.213 51.318 212.874 75.115 199.135 41.059 179.473 17.261 193.213 17.261 193.213"/><path class="w" d="m51.823,210.593l23.797-13.739-5.781-3.353-18.016,11.113c-.76,2.708-.76,4.7,0,5.979h0Z"/><path class="o" d="m51.122,209.976l23.35-13.482v-5.978l-23.797,13.739c-.76,2.708-.314,4.443.447,5.72h0Z"/><path class="s" d="m14.535,189.065l37.288,21.528c-.751-1.7-.751-3.693,0-5.979l-37.288-21.526c-.688,2.449-.688,4.441,0,5.978h0Z"/><polygon class="u" points="14.535 183.087 51.823 204.614 75.621 190.876 38.333 169.346 14.535 183.087 14.535 183.087"/><path class="am" d="m51.105,203.564l23.797-13.739-5.781-3.353-18.017,11.115c-.76,2.706-.76,4.699,0,5.978h0Z"/><g class="av"><path class="o" d="m50.403,202.947l23.35-13.482v-5.978l-23.797,13.739c-.76,2.706-.314,4.443.447,5.72h0Z"/><path class="aq" d="m13.816,182.037l37.288,21.528c-.751-1.7-.751-3.693,0-5.978l-37.287-21.529c-.688,2.45-.688,4.443,0,5.979h0Z"/></g><polygon class="am" points="13.816 176.057 51.104 197.587 74.902 183.846 37.614 162.318 13.816 176.057 13.816 176.057"/><path class="aa" d="m51.839,195.296l23.797-13.739-5.781-3.352-18.016,11.113c-.76,2.708-.76,4.7,0,5.978h0Z"/><path class="o" d="m51.137,194.681l23.351-13.482v-5.978l-23.797,13.739c-.76,2.706-.314,4.443.446,5.72h0Z"/><path class="aa" d="m17.782,175.634l34.056,19.662c-.751-1.7-.75-3.693,0-5.978l-34.056-19.663c-.689,2.45-.689,4.443,0,5.979h0Z"/><polygon class="s" points="17.782 169.655 51.839 189.318 75.636 175.579 41.58 155.917 17.782 169.655 17.782 169.655"/></g></g></g></svg>